<?xml version="1.0" encoding="UTF-8"?>
<svg xmlns="http://www.w3.org/2000/svg"
     xmlns:xlink="http://www.w3.org/1999/xlink"
     xmlns:gadfly="http://www.gadflyjl.org/ns"
     version="1.2"
     width="95.25mm" height="69.85mm" viewBox="0 0 95.25 69.85"
     stroke="none"
     fill="#000000"
     stroke-width="0.3"
     font-size="3.88"
>
<defs>
  <marker id="arrow" markerWidth="15" markerHeight="7" refX="5" refY="3.5" orient="auto" markerUnits="strokeWidth">
    <path d="M0,0 L15,3.5 L0,7 z" stroke="context-stroke" fill="context-stroke"/>
  </marker>
</defs>
<g class="plotroot xscalable yscalable" id="img-946e8d62-1">
  <g font-size="3.88" font-family="'PT Sans','Helvetica Neue','Helvetica',sans-serif" fill="#564A55" stroke="#000000" stroke-opacity="0.000" id="img-946e8d62-2">
    <g transform="translate(53.74,65.78)">
      <g class="primitive">
        <text text-anchor="middle" dy="0.6em">Tg/T (-)</text>
      </g>
    </g>
  </g>
  <g class="guide xlabels" font-size="2.82" font-family="'PT Sans Caption','Helvetica Neue','Helvetica',sans-serif" fill="#6C606B" id="img-946e8d62-3">
    <g transform="translate(16.76,59.1)">
      <g class="primitive">
        <text text-anchor="middle" dy="0.6em">0.0</text>
      </g>
    </g>
    <g transform="translate(23.87,59.1)">
      <g class="primitive">
        <text text-anchor="middle" dy="0.6em">0.1</text>
      </g>
    </g>
    <g transform="translate(30.98,59.1)">
      <g class="primitive">
        <text text-anchor="middle" dy="0.6em">0.2</text>
      </g>
    </g>
    <g transform="translate(38.09,59.1)">
      <g class="primitive">
        <text text-anchor="middle" dy="0.6em">0.3</text>
      </g>
    </g>
    <g transform="translate(45.2,59.1)">
      <g class="primitive">
        <text text-anchor="middle" dy="0.6em">0.4</text>
      </g>
    </g>
    <g transform="translate(52.32,59.1)">
      <g class="primitive">
        <text text-anchor="middle" dy="0.6em">0.5</text>
      </g>
    </g>
    <g transform="translate(59.43,59.1)">
      <g class="primitive">
        <text text-anchor="middle" dy="0.6em">0.6</text>
      </g>
    </g>
    <g transform="translate(66.54,59.1)">
      <g class="primitive">
        <text text-anchor="middle" dy="0.6em">0.7</text>
      </g>
    </g>
    <g transform="translate(73.65,59.1)">
      <g class="primitive">
        <text text-anchor="middle" dy="0.6em">0.8</text>
      </g>
    </g>
    <g transform="translate(80.76,59.1)">
      <g class="primitive">
        <text text-anchor="middle" dy="0.6em">0.9</text>
      </g>
    </g>
    <g transform="translate(87.87,59.1)">
      <g class="primitive">
        <text text-anchor="middle" dy="0.6em">1.0</text>
      </g>
    </g>
  </g>
  <g clip-path="url(#img-946e8d62-4)">
    <g id="img-946e8d62-5">
      <g pointer-events="visible" fill="#000000" fill-opacity="0.000" stroke="#000000" stroke-opacity="0.000" class="guide background" id="img-946e8d62-6">
        <g transform="translate(53.74,29.05)" id="img-946e8d62-7">
          <path d="M-38.97,-29.05 L 38.97 -29.05 38.97 29.05 -38.97 29.05 z" class="primitive"/>
        </g>
      </g>
      <g class="guide xgridlines yfixed" stroke-dasharray="0.5,0.5" stroke-width="0.2" stroke="#D0D0E0" id="img-946e8d62-8">
        <g transform="translate(16.76,29.05)" id="img-946e8d62-9">
          <path fill="none" d="M0,-29.05 L 0 29.05" class="primitive"/>
        </g>
        <g transform="translate(23.87,29.05)" id="img-946e8d62-10">
          <path fill="none" d="M0,-29.05 L 0 29.05" class="primitive"/>
        </g>
        <g transform="translate(30.98,29.05)" id="img-946e8d62-11">
          <path fill="none" d="M0,-29.05 L 0 29.05" class="primitive"/>
        </g>
        <g transform="translate(38.09,29.05)" id="img-946e8d62-12">
          <path fill="none" d="M0,-29.05 L 0 29.05" class="primitive"/>
        </g>
        <g transform="translate(45.2,29.05)" id="img-946e8d62-13">
          <path fill="none" d="M0,-29.05 L 0 29.05" class="primitive"/>
        </g>
        <g transform="translate(52.32,29.05)" id="img-946e8d62-14">
          <path fill="none" d="M0,-29.05 L 0 29.05" class="primitive"/>
        </g>
        <g transform="translate(59.43,29.05)" id="img-946e8d62-15">
          <path fill="none" d="M0,-29.05 L 0 29.05" class="primitive"/>
        </g>
        <g transform="translate(66.54,29.05)" id="img-946e8d62-16">
          <path fill="none" d="M0,-29.05 L 0 29.05" class="primitive"/>
        </g>
        <g transform="translate(73.65,29.05)" id="img-946e8d62-17">
          <path fill="none" d="M0,-29.05 L 0 29.05" class="primitive"/>
        </g>
        <g transform="translate(80.76,29.05)" id="img-946e8d62-18">
          <path fill="none" d="M0,-29.05 L 0 29.05" class="primitive"/>
        </g>
        <g transform="translate(87.87,29.05)" id="img-946e8d62-19">
          <path fill="none" d="M0,-29.05 L 0 29.05" class="primitive"/>
        </g>
      </g>
      <g class="guide ygridlines xfixed" stroke-dasharray="0.5,0.5" stroke-width="0.2" stroke="#D0D0E0" id="img-946e8d62-20">
        <g transform="translate(53.74,56.1)" id="img-946e8d62-21">
          <path fill="none" d="M-38.97,0 L 38.97 0" class="primitive"/>
        </g>
        <g transform="translate(53.74,53.1)" id="img-946e8d62-22">
          <path fill="none" d="M-38.97,0 L 38.97 0" class="primitive"/>
        </g>
        <g transform="translate(53.74,50.09)" id="img-946e8d62-23">
          <path fill="none" d="M-38.97,0 L 38.97 0" class="primitive"/>
        </g>
        <g transform="translate(53.74,47.09)" id="img-946e8d62-24">
          <path fill="none" d="M-38.97,0 L 38.97 0" class="primitive"/>
        </g>
        <g transform="translate(53.74,44.08)" id="img-946e8d62-25">
          <path fill="none" d="M-38.97,0 L 38.97 0" class="primitive"/>
        </g>
        <g transform="translate(53.74,41.08)" id="img-946e8d62-26">
          <path fill="none" d="M-38.97,0 L 38.97 0" class="primitive"/>
        </g>
        <g transform="translate(53.74,38.07)" id="img-946e8d62-27">
          <path fill="none" d="M-38.97,0 L 38.97 0" class="primitive"/>
        </g>
        <g transform="translate(53.74,35.06)" id="img-946e8d62-28">
          <path fill="none" d="M-38.97,0 L 38.97 0" class="primitive"/>
        </g>
        <g transform="translate(53.74,32.06)" id="img-946e8d62-29">
          <path fill="none" d="M-38.97,0 L 38.97 0" class="primitive"/>
        </g>
        <g transform="translate(53.74,29.05)" id="img-946e8d62-30">
          <path fill="none" d="M-38.97,0 L 38.97 0" class="primitive"/>
        </g>
        <g transform="translate(53.74,26.05)" id="img-946e8d62-31">
          <path fill="none" d="M-38.97,0 L 38.97 0" class="primitive"/>
        </g>
        <g transform="translate(53.74,23.04)" id="img-946e8d62-32">
          <path fill="none" d="M-38.97,0 L 38.97 0" class="primitive"/>
        </g>
        <g transform="translate(53.74,20.04)" id="img-946e8d62-33">
          <path fill="none" d="M-38.97,0 L 38.97 0" class="primitive"/>
        </g>
        <g transform="translate(53.74,17.03)" id="img-946e8d62-34">
          <path fill="none" d="M-38.97,0 L 38.97 0" class="primitive"/>
        </g>
        <g transform="translate(53.74,14.02)" id="img-946e8d62-35">
          <path fill="none" d="M-38.97,0 L 38.97 0" class="primitive"/>
        </g>
        <g transform="translate(53.74,11.02)" id="img-946e8d62-36">
          <path fill="none" d="M-38.97,0 L 38.97 0" class="primitive"/>
        </g>
        <g transform="translate(53.74,8.01)" id="img-946e8d62-37">
          <path fill="none" d="M-38.97,0 L 38.97 0" class="primitive"/>
        </g>
        <g transform="translate(53.74,5.01)" id="img-946e8d62-38">
          <path fill="none" d="M-38.97,0 L 38.97 0" class="primitive"/>
        </g>
      </g>
      <g class="plotpanel" id="img-946e8d62-39">
        <metadata>
          <boundingbox value="14.764166666666668mm 0.0mm 77.94583333333333mm 58.105000000000004mm"/>
          <unitbox value="-0.02812869780808024 13.665372886054893 1.0962573956161603 -19.330745772109786"/>
        </metadata>
        <g stroke-width="0.3" class="geometry" fill-opacity="0.3" fill="#F7DFBD" id="img-946e8d62-40">
          <g transform="translate(52.32,43.41)" id="img-946e8d62-41">
            <path d="M35.55,-38.41 L 34.84 -33.38 34.13 -29.18 33.42 -25.62 32.71 -22.56 32 -19.9 31.28 -17.56 30.57 -15.5 29.86 -13.67 29.15 -12.02 28.44 -10.54 27.73 -9.2 27.02 -7.98 26.31 -6.87 25.6 -5.84 24.89 -4.9 24.17 -4.03 23.46 -3.22 22.75 -2.47 22.04 -1.78 21.33 -1.13 20.62 -0.52 19.91 0.06 19.2 0.59 18.49 1.1 17.78 1.58 17.06 2.03 16.35 2.46 15.64 2.86 14.93 3.24 14.22 3.61 13.51 3.96 12.8 4.29 12.09 4.6 11.38 4.9 10.67 5.19 9.95 5.47 9.24 5.73 8.53 5.98 7.82 6.22 7.11 6.46 6.4 6.68 5.69 6.9 4.98 7.1 4.27 7.3 3.56 7.49 2.84 7.68 2.13 7.86 1.42 8.03 0.71 8.2 0 8.36 -0.71 8.52 -1.42 8.67 -2.13 8.81 -2.84 8.95 -3.56 9.09 -4.27 9.22 -4.98 9.35 -5.69 9.48 -6.4 9.6 -7.11 9.72 -7.82 9.83 -8.53 9.95 -9.24 10.06 -9.95 10.16 -10.67 10.26 -11.38 10.36 -12.09 10.46 -12.8 10.56 -13.51 10.65 -14.22 10.74 -14.93 10.83 -15.64 10.92 -16.35 11 -17.06 11.08 -17.78 11.16 -18.49 11.24 -19.2 11.32 -19.91 11.39 -20.62 11.46 -21.33 11.54 -22.04 11.61 -22.75 11.67 -23.46 11.74 -24.17 11.81 -24.89 11.87 -25.6 11.93 -26.31 11.99 -27.02 12.05 -27.73 12.11 -28.44 12.17 -29.15 12.23 -29.86 12.28 -30.57 12.34 -31.28 12.39 -32 12.44 -32.71 12.5 -33.42 12.55 -34.13 12.6 -34.84 12.64 -35.55 12.69 -35.55 12.69 -34.84 12.52 -34.13 12.34 -33.42 12.16 -32.71 11.98 -32 11.8 -31.28 11.61 -30.57 11.42 -29.86 11.23 -29.15 11.04 -28.44 10.84 -27.73 10.64 -27.02 10.44 -26.31 10.24 -25.6 10.03 -24.89 9.82 -24.17 9.6 -23.46 9.38 -22.75 9.16 -22.04 8.94 -21.33 8.71 -20.62 8.48 -19.91 8.24 -19.2 8.01 -18.49 7.76 -17.78 7.52 -17.06 7.27 -16.35 7.01 -15.64 6.76 -14.93 6.49 -14.22 6.23 -13.51 5.96 -12.8 5.68 -12.09 5.4 -11.38 5.11 -10.67 4.82 -9.95 4.53 -9.24 4.23 -8.53 3.92 -7.82 3.61 -7.11 3.3 -6.4 2.97 -5.69 2.64 -4.98 2.31 -4.27 1.97 -3.56 1.62 -2.84 1.27 -2.13 0.91 -1.42 0.54 -0.71 0.17 0 -0.22 0.71 -0.61 1.42 -1 2.13 -1.41 2.84 -1.82 3.56 -2.25 4.27 -2.68 4.98 -3.12 5.69 -3.57 6.4 -4.03 7.11 -4.5 7.82 -4.98 8.53 -5.47 9.24 -5.97 9.95 -6.49 10.67 -7.01 11.38 -7.55 12.09 -8.1 12.8 -8.67 13.51 -9.25 14.22 -9.84 14.93 -10.45 15.64 -11.07 16.35 -11.71 17.06 -12.36 17.78 -13.03 18.49 -13.73 19.2 -14.43 19.91 -15.16 20.62 -15.91 21.33 -16.68 22.04 -17.47 22.75 -18.29 23.46 -19.13 24.17 -19.99 24.89 -20.88 25.6 -21.8 26.31 -22.74 27.02 -23.72 27.73 -24.72 28.44 -25.76 29.15 -26.84 29.86 -27.95 30.57 -29.1 31.28 -30.29 32 -31.52 32.71 -32.8 33.42 -34.12 34.13 -35.5 34.84 -36.92 35.55 -38.41 z" class="primitive"/>
          </g>
        </g>
        <g stroke-width="0.3" fill="#000000" fill-opacity="0.000" class="geometry" id="img-946e8d62-42">
          <g class="color_Angell_model" stroke-dasharray="none" stroke="#B8860B" id="img-946e8d62-43">
            <g transform="translate(52.32,44.79)" id="img-946e8d62-44">
              <path fill="none" d="M-35.55,11.32 L -34.84 11.24 -34.13 11.16 -33.42 11.08 -32.71 11 -32 10.91 -31.28 10.83 -30.57 10.74 -29.86 10.65 -29.15 10.56 -28.44 10.47 -27.73 10.38 -27.02 10.28 -26.31 10.19 -25.6 10.09 -24.89 9.99 -24.17 9.88 -23.46 9.78 -22.75 9.67 -22.04 9.56 -21.33 9.45 -20.62 9.34 -19.91 9.22 -19.2 9.1 -18.49 8.98 -17.78 8.86 -17.06 8.73 -16.35 8.6 -15.64 8.47 -14.93 8.34 -14.22 8.2 -13.51 8.06 -12.8 7.92 -12.09 7.77 -11.38 7.62 -10.67 7.46 -9.95 7.3 -9.24 7.14 -8.53 6.97 -7.82 6.8 -7.11 6.63 -6.4 6.45 -5.69 6.26 -4.98 6.07 -4.27 5.88 -3.56 5.68 -2.84 5.47 -2.13 5.26 -1.42 5.04 -0.71 4.82 -0 4.59 0.71 4.35 1.42 4.11 2.13 3.86 2.84 3.6 3.56 3.33 4.27 3.05 4.98 2.77 5.69 2.47 6.4 2.17 7.11 1.85 7.82 1.52 8.53 1.18 9.24 0.83 9.95 0.47 10.67 0.09 11.38 -0.3 12.09 -0.71 12.8 -1.13 13.51 -1.57 14.22 -2.03 14.93 -2.51 15.64 -3.02 16.35 -3.54 17.06 -4.09 17.78 -4.66 18.49 -5.26 19.2 -5.89 19.91 -6.55 20.62 -7.24 21.33 -7.97 22.04 -8.74 22.75 -9.56 23.46 -10.42 24.17 -11.33 24.89 -12.3 25.6 -13.32 26.31 -14.42 27.02 -15.58 27.73 -16.83 28.44 -18.17 29.15 -19.61 29.86 -21.16 30.57 -22.83 31.28 -24.64 32 -26.61 32.71 -28.76 33.42 -31.12 34.13 -33.72 34.84 -36.59 35.55 -39.78" class="primitive"/>
            </g>
          </g>
        </g>
        <g stroke-width="0.3" fill="#000000" fill-opacity="0.000" class="geometry" id="img-946e8d62-45">
          <g class="color_Arrhenius_model" stroke-dasharray="none" stroke="#8B0000" id="img-946e8d62-46">
            <g transform="translate(52.32,30.56)" id="img-946e8d62-47">
              <path fill="none" d="M-35.55,25.55 L 35.55 -25.55" class="primitive"/>
            </g>
          </g>
        </g>
        <g class="geometry" id="img-946e8d62-48">
          <g class="color_RGB{Float32}(0.5019608f0,0.5019608f0,0.5019608f0)" stroke-width="0.35" stroke="#5B5B5B" id="img-946e8d62-49">
            <g transform="translate(87.87,5.01)" id="img-946e8d62-50">
              <path fill="none" d="M-2.62,0 L 2.62 0" class="primitive"/>
            </g>
            <g class="marker" stroke="#5B5B5B" id="img-946e8d62-51">
              <g transform="translate(90.48,5.01)" id="img-946e8d62-52">
                <path fill="none" d="M0,-1.5 L 0 1.5" class="primitive"/>
              </g>
            </g>
            <g class="marker" stroke="#5B5B5B" id="img-946e8d62-53">
              <g transform="translate(85.25,5.01)" id="img-946e8d62-54">
                <path fill="none" d="M0,-1.5 L 0 1.5" class="primitive"/>
              </g>
            </g>
          </g>
        </g>
        <g class="geometry" id="img-946e8d62-55">
          <g stroke-width="0.14" id="img-946e8d62-56">
            <g class="color_α-pinene_SOA_data" fill-opacity="0.3" stroke="#000000" fill="#000000" id="img-946e8d62-57">
              <g class="marker" id="img-946e8d62-58">
                <g transform="translate(87.87,5.01)" id="img-946e8d62-59">
                  <circle cx="0" cy="0" r="1.06" class="primitive"/>
                </g>
              </g>
            </g>
            <g class="color_α-pinene_SOA_data" fill-opacity="0.3" stroke="#000000" fill="#000000" id="img-946e8d62-60">
              <g class="marker" id="img-946e8d62-61">
                <g transform="translate(82.05,23.23)" id="img-946e8d62-62">
                  <path d="M-1.06,-0.4 L 1.06 -0.4 1.06 0.4 -1.06 0.4 z" class="primitive"/>
                </g>
              </g>
            </g>
            <g class="color_α-pinene_SOA_data" fill-opacity="0.3" stroke="#000000" fill="#000000" id="img-946e8d62-63">
              <g class="marker" id="img-946e8d62-64">
                <g transform="translate(82.6,22.47)" id="img-946e8d62-65">
                  <path d="M-1.06,-0.4 L 1.06 -0.4 1.06 0.4 -1.06 0.4 z" class="primitive"/>
                </g>
              </g>
            </g>
            <g class="color_α-pinene_SOA_data" fill-opacity="0.3" stroke="#000000" fill="#000000" id="img-946e8d62-66">
              <g class="marker" id="img-946e8d62-67">
                <g transform="translate(83.17,21.58)" id="img-946e8d62-68">
                  <path d="M-1.06,-0.4 L 1.06 -0.4 1.06 0.4 -1.06 0.4 z" class="primitive"/>
                </g>
              </g>
            </g>
            <g class="color_α-pinene_SOA_data" fill-opacity="0.3" stroke="#000000" fill="#000000" id="img-946e8d62-69">
              <g class="marker" id="img-946e8d62-70">
                <g transform="translate(83.74,20.56)" id="img-946e8d62-71">
                  <path d="M-1.06,-0.4 L 1.06 -0.4 1.06 0.4 -1.06 0.4 z" class="primitive"/>
                </g>
              </g>
            </g>
          </g>
        </g>
      </g>
      <g class="guide colorkey" id="img-946e8d62-72">
        <g fill="#4C404B" font-size="2.82" font-family="'PT Sans','Helvetica Neue','Helvetica',sans-serif" id="img-946e8d62-73">
          <g transform="translate(20.58,25.24)" id="img-946e8d62-74" class="color_α-pinene_SOA_data">
            <g class="primitive">
              <text dy="0.35em">α-pinene SOA data</text>
            </g>
          </g>
          <g transform="translate(20.58,28.87)" id="img-946e8d62-75" class="color_Arrhenius_model">
            <g class="primitive">
              <text dy="0.35em">Arrhenius model</text>
            </g>
          </g>
          <g transform="translate(20.58,32.49)" id="img-946e8d62-76" class="color_Angell_model">
            <g class="primitive">
              <text dy="0.35em">Angell model</text>
            </g>
          </g>
        </g>
        <g fill-opacity="0.4" id="img-946e8d62-77">
          <g transform="translate(18.67,25.24)" id="img-946e8d62-78" class="color_α-pinene_SOA_data" fill="#000000" stroke="#000000">
            <path d="M-0.91,-0.91 L 0.91 -0.91 0.91 0.91 -0.91 0.91 z" class="primitive"/>
          </g>
          <g transform="translate(18.67,28.87)" id="img-946e8d62-79" class="color_Arrhenius_model" fill="#8B0000" stroke="#8B0000">
            <path d="M-0.91,-0.91 L 0.91 -0.91 0.91 0.91 -0.91 0.91 z" class="primitive"/>
          </g>
          <g transform="translate(18.67,32.49)" id="img-946e8d62-80" class="color_Angell_model" fill="#B8860B" stroke="#B8860B">
            <path d="M-0.91,-0.91 L 0.91 -0.91 0.91 0.91 -0.91 0.91 z" class="primitive"/>
          </g>
        </g>
        <g fill="#362A35" font-size="3.88" font-family="'PT Sans','Helvetica Neue','Helvetica',sans-serif" stroke="#000000" stroke-opacity="0.000" id="img-946e8d62-81">
          <g transform="translate(17.76,21.42)" id="img-946e8d62-82">
            <g class="primitive">
              <text dy="-0em">Colorkey</text>
            </g>
          </g>
        </g>
      </g>
      <g class="guide colorkey" id="img-946e8d62-83">
        <g fill="#4C404B" font-size="2.82" font-family="'PT Sans','Helvetica Neue','Helvetica',sans-serif" id="img-946e8d62-84">
          <g transform="translate(21.39,9.8)" id="img-946e8d62-85">
            <g class="primitive">
              <text dy="0.35em">Viscosity data</text>
            </g>
          </g>
          <g transform="translate(21.39,13.42)" id="img-946e8d62-86">
            <g class="primitive">
              <text dy="0.35em">Extrapolated Tg</text>
            </g>
          </g>
        </g>
        <g stroke-width="0.3" id="img-946e8d62-87">
          <g stroke="#708090" fill-opacity="0.4" fill="#708090" id="img-946e8d62-88">
            <g transform="translate(18.58,13.42)" id="img-946e8d62-89">
              <circle cx="0" cy="0" r="0.9" class="primitive"/>
            </g>
          </g>
          <g stroke="#708090" fill-opacity="0.4" fill="#708090" id="img-946e8d62-90">
            <g transform="translate(18.58,9.8)" id="img-946e8d62-91">
              <path d="M-0.9,-0.4 L 0.9 -0.4 0.9 0.4 -0.9 0.4 z" class="primitive"/>
            </g>
          </g>
        </g>
        <g fill="#362A35" font-size="3.88" font-family="'PT Sans','Helvetica Neue','Helvetica',sans-serif" stroke="#000000" stroke-opacity="0.000" id="img-946e8d62-92">
          <g transform="translate(17.76,6.48)" id="img-946e8d62-93">
            <g class="primitive">
              <text dy="-0em">Shapekey</text>
            </g>
          </g>
        </g>
      </g>
    </g>
  </g>
  <g class="guide ylabels" font-size="2.82" font-family="'PT Sans Caption','Helvetica Neue','Helvetica',sans-serif" fill="#6C606B" id="img-946e8d62-94">
    <g transform="translate(13.76,56.1)" id="img-946e8d62-95">
      <g class="primitive">
        <text text-anchor="end" dy="0.35em">-5</text>
      </g>
    </g>
    <g transform="translate(13.76,53.1)" id="img-946e8d62-96">
      <g class="primitive">
        <text text-anchor="end" dy="0.35em">-4</text>
      </g>
    </g>
    <g transform="translate(13.76,50.09)" id="img-946e8d62-97">
      <g class="primitive">
        <text text-anchor="end" dy="0.35em">-3</text>
      </g>
    </g>
    <g transform="translate(13.76,47.09)" id="img-946e8d62-98">
      <g class="primitive">
        <text text-anchor="end" dy="0.35em">-2</text>
      </g>
    </g>
    <g transform="translate(13.76,44.08)" id="img-946e8d62-99">
      <g class="primitive">
        <text text-anchor="end" dy="0.35em">-1</text>
      </g>
    </g>
    <g transform="translate(13.76,41.08)" id="img-946e8d62-100">
      <g class="primitive">
        <text text-anchor="end" dy="0.35em">0</text>
      </g>
    </g>
    <g transform="translate(13.76,38.07)" id="img-946e8d62-101">
      <g class="primitive">
        <text text-anchor="end" dy="0.35em">1</text>
      </g>
    </g>
    <g transform="translate(13.76,35.06)" id="img-946e8d62-102">
      <g class="primitive">
        <text text-anchor="end" dy="0.35em">2</text>
      </g>
    </g>
    <g transform="translate(13.76,32.06)" id="img-946e8d62-103">
      <g class="primitive">
        <text text-anchor="end" dy="0.35em">3</text>
      </g>
    </g>
    <g transform="translate(13.76,29.05)" id="img-946e8d62-104">
      <g class="primitive">
        <text text-anchor="end" dy="0.35em">4</text>
      </g>
    </g>
    <g transform="translate(13.76,26.05)" id="img-946e8d62-105">
      <g class="primitive">
        <text text-anchor="end" dy="0.35em">5</text>
      </g>
    </g>
    <g transform="translate(13.76,23.04)" id="img-946e8d62-106">
      <g class="primitive">
        <text text-anchor="end" dy="0.35em">6</text>
      </g>
    </g>
    <g transform="translate(13.76,20.04)" id="img-946e8d62-107">
      <g class="primitive">
        <text text-anchor="end" dy="0.35em">7</text>
      </g>
    </g>
    <g transform="translate(13.76,17.03)" id="img-946e8d62-108">
      <g class="primitive">
        <text text-anchor="end" dy="0.35em">8</text>
      </g>
    </g>
    <g transform="translate(13.76,14.02)" id="img-946e8d62-109">
      <g class="primitive">
        <text text-anchor="end" dy="0.35em">9</text>
      </g>
    </g>
    <g transform="translate(13.76,11.02)" id="img-946e8d62-110">
      <g class="primitive">
        <text text-anchor="end" dy="0.35em">10</text>
      </g>
    </g>
    <g transform="translate(13.76,8.01)" id="img-946e8d62-111">
      <g class="primitive">
        <text text-anchor="end" dy="0.35em">11</text>
      </g>
    </g>
    <g transform="translate(13.76,5.01)" id="img-946e8d62-112">
      <g class="primitive">
        <text text-anchor="end" dy="0.35em">12</text>
      </g>
    </g>
  </g>
  <g font-size="3.88" font-family="'PT Sans','Helvetica Neue','Helvetica',sans-serif" fill="#564A55" stroke="#000000" stroke-opacity="0.000" id="img-946e8d62-113">
    <g transform="translate(4.71,27.05)" id="img-946e8d62-114">
      <g class="primitive">
        <text text-anchor="middle" dy="0.35em" transform="rotate(-90,0, 2)">Log<tspan style="dominant-baseline:inherit" dy="0.6em" font-size="83%">10</tspan><tspan dy="-0.498000em"> (viscosity in Pa s)</tspan></text>
      </g>
    </g>
  </g>
</g>
<defs>
  <clipPath id="img-946e8d62-4">
    <path d="M14.76,0 L 92.71 0 92.71 58.1 14.76 58.1" />
  </clipPath>
</defs>
</svg>
