<?xml version="1.0" encoding="UTF-8"?>
<svg xmlns="http://www.w3.org/2000/svg"
     xmlns:xlink="http://www.w3.org/1999/xlink"
     xmlns:gadfly="http://www.gadflyjl.org/ns"
     version="1.2"
     width="123mm" height="63.5mm" viewBox="0 0 123 63.5"
     stroke="none"
     fill="#000000"
     stroke-width="0.3"
     font-size="3.88"
>
<defs>
  <marker id="arrow" markerWidth="15" markerHeight="7" refX="5" refY="3.5" orient="auto" markerUnits="strokeWidth">
    <path d="M0,0 L15,3.5 L0,7 z" stroke="context-stroke" fill="context-stroke"/>
  </marker>
</defs>
<g class="plotroot xscalable yscalable" id="img-56e88ff9-1">
  <g font-size="3.88" font-family="'PT Sans','Helvetica Neue','Helvetica',sans-serif" fill="#564A55" stroke="#000000" stroke-opacity="0.000" id="img-56e88ff9-2">
    <g transform="translate(49.51,59.43)">
      <g class="primitive">
        <text text-anchor="middle" dy="0.6em">Relative humidity (%)</text>
      </g>
    </g>
  </g>
  <g class="guide xlabels" font-size="2.82" font-family="'PT Sans Caption','Helvetica Neue','Helvetica',sans-serif" fill="#6C606B" id="img-56e88ff9-3">
    <g transform="translate(16.76,52.76)">
      <g class="primitive">
        <text text-anchor="middle" dy="0.6em">0</text>
      </g>
    </g>
    <g transform="translate(23.31,52.76)">
      <g class="primitive">
        <text text-anchor="middle" dy="0.6em">10</text>
      </g>
    </g>
    <g transform="translate(29.86,52.76)">
      <g class="primitive">
        <text text-anchor="middle" dy="0.6em">20</text>
      </g>
    </g>
    <g transform="translate(36.41,52.76)">
      <g class="primitive">
        <text text-anchor="middle" dy="0.6em">30</text>
      </g>
    </g>
    <g transform="translate(42.96,52.76)">
      <g class="primitive">
        <text text-anchor="middle" dy="0.6em">40</text>
      </g>
    </g>
    <g transform="translate(49.51,52.76)">
      <g class="primitive">
        <text text-anchor="middle" dy="0.6em">50</text>
      </g>
    </g>
    <g transform="translate(56.06,52.76)">
      <g class="primitive">
        <text text-anchor="middle" dy="0.6em">60</text>
      </g>
    </g>
    <g transform="translate(62.61,52.76)">
      <g class="primitive">
        <text text-anchor="middle" dy="0.6em">70</text>
      </g>
    </g>
    <g transform="translate(69.16,52.76)">
      <g class="primitive">
        <text text-anchor="middle" dy="0.6em">80</text>
      </g>
    </g>
    <g transform="translate(75.71,52.76)">
      <g class="primitive">
        <text text-anchor="middle" dy="0.6em">90</text>
      </g>
    </g>
    <g transform="translate(82.26,52.76)">
      <g class="primitive">
        <text text-anchor="middle" dy="0.6em">100</text>
      </g>
    </g>
  </g>
  <g class="guide colorkey" id="img-56e88ff9-4">
    <g fill="#4C404B" font-size="2.82" font-family="'PT Sans','Helvetica Neue','Helvetica',sans-serif" id="img-56e88ff9-5">
      <g transform="translate(88.89,18.82)" id="img-56e88ff9-6">
        <g class="primitive">
          <text dy="0.35em">Renbaum-Wolff et al. (2013)</text>
        </g>
      </g>
      <g transform="translate(88.89,22.45)" id="img-56e88ff9-7">
        <g class="primitive">
          <text dy="0.35em">Abramson et al. (2013)</text>
        </g>
      </g>
      <g transform="translate(88.89,26.08)" id="img-56e88ff9-8">
        <g class="primitive">
          <text dy="0.35em">Kidd et al. (2014)</text>
        </g>
      </g>
      <g transform="translate(88.89,29.7)" id="img-56e88ff9-9">
        <g class="primitive">
          <text dy="0.35em">Pajunoja et al. (2014)</text>
        </g>
      </g>
      <g transform="translate(88.89,33.33)" id="img-56e88ff9-10">
        <g class="primitive">
          <text dy="0.35em">Zhang et al. (2015)</text>
        </g>
      </g>
      <g transform="translate(88.89,36.96)" id="img-56e88ff9-11">
        <g class="primitive">
          <text dy="0.35em">Grayson et al. (2016)</text>
        </g>
      </g>
      <g transform="translate(88.89,40.58)" id="img-56e88ff9-12">
        <g class="primitive">
          <text dy="0.35em">S. Petters et al. (2019)</text>
        </g>
      </g>
    </g>
    <g stroke-width="0.18" id="img-56e88ff9-13">
      <g stroke="#8B0000" fill-opacity="0.6" fill="#8B0000" id="img-56e88ff9-14">
        <g transform="translate(86.07,40.58)" id="img-56e88ff9-15">
          <path d="M0,-0.55 L 0.55 -1.1 1.1 -0.55 0.55 0 1.1 0.55 0.55 1.1 0 0.55 -0.55 1.1 -1.1 0.55 -0.55 0 -1.1 -0.55 -0.55 -1.1 z" class="primitive"/>
        </g>
      </g>
      <g stroke="#A2CD5A" fill-opacity="0.6" fill="#A2CD5A" id="img-56e88ff9-16">
        <g transform="translate(86.07,37.27)" id="img-56e88ff9-17">
          <path d="M-1.07,-0.93 L 1.07 -0.93 0 0.93 0 0.93 z" class="primitive"/>
        </g>
      </g>
      <g stroke="#3CB371" fill-opacity="0.6" fill="#3CB371" id="img-56e88ff9-18">
        <g transform="translate(86.07,33.02)" id="img-56e88ff9-19">
          <path d="M-1.07,0.93 L 1.07 0.93 0 -0.93 0 -0.93 z" class="primitive"/>
        </g>
      </g>
      <g stroke="#B8860B" fill-opacity="0.6" fill="#B8860B" id="img-56e88ff9-20">
        <g transform="translate(86.07,29.7)" id="img-56e88ff9-21">
          <path d="M-0.87,-0.87 L -0.87 0.87 0.87 0.87 0.87 -0.87 z" class="primitive"/>
        </g>
      </g>
      <g stroke="#A4D3EE" fill-opacity="0.6" fill="#A4D3EE" id="img-56e88ff9-22">
        <g transform="translate(86.07,26.08)" id="img-56e88ff9-23">
          <circle cx="0" cy="0" r="1.23" class="primitive"/>
        </g>
      </g>
      <g stroke="#5D478B" fill-opacity="0.6" fill="#5D478B" id="img-56e88ff9-24">
        <g transform="translate(86.07,22.45)" id="img-56e88ff9-25">
          <path d="M0,-1.23 L 1.23 0 0 1.23 -1.23 0 z" class="primitive"/>
        </g>
      </g>
      <g stroke="#8B795E" fill-opacity="0.6" fill="#8B795E" id="img-56e88ff9-26">
        <g transform="translate(86.07,18.82)" id="img-56e88ff9-27">
          <path d="M-1.23,-0.4 L 1.23 -0.4 1.23 0.4 -1.23 0.4 z" class="primitive"/>
        </g>
      </g>
    </g>
    <g fill="#362A35" font-size="3.88" font-family="'PT Sans','Helvetica Neue','Helvetica',sans-serif" stroke="#000000" stroke-opacity="0.000" id="img-56e88ff9-28">
      <g transform="translate(85.26,15.51)" id="img-56e88ff9-29">
        <g class="primitive">
          <text dy="-0em">Color/Shape</text>
        </g>
      </g>
    </g>
  </g>
  <g clip-path="url(#img-56e88ff9-30)">
    <g id="img-56e88ff9-31">
      <g pointer-events="visible" fill="#000000" fill-opacity="0.000" stroke="#000000" stroke-opacity="0.000" class="guide background" id="img-56e88ff9-32">
        <g transform="translate(49.51,27.15)" id="img-56e88ff9-33">
          <path d="M-34.75,-24.61 L 34.75 -24.61 34.75 24.61 -34.75 24.61 z" class="primitive"/>
        </g>
      </g>
      <g class="guide xgridlines yfixed" stroke-dasharray="0.5,0.5" stroke-width="0.2" stroke="#D0D0E0" id="img-56e88ff9-34">
        <g transform="translate(16.76,27.15)" id="img-56e88ff9-35">
          <path fill="none" d="M0,-24.61 L 0 24.61" class="primitive"/>
        </g>
        <g transform="translate(23.31,27.15)" id="img-56e88ff9-36">
          <path fill="none" d="M0,-24.61 L 0 24.61" class="primitive"/>
        </g>
        <g transform="translate(29.86,27.15)" id="img-56e88ff9-37">
          <path fill="none" d="M0,-24.61 L 0 24.61" class="primitive"/>
        </g>
        <g transform="translate(36.41,27.15)" id="img-56e88ff9-38">
          <path fill="none" d="M0,-24.61 L 0 24.61" class="primitive"/>
        </g>
        <g transform="translate(42.96,27.15)" id="img-56e88ff9-39">
          <path fill="none" d="M0,-24.61 L 0 24.61" class="primitive"/>
        </g>
        <g transform="translate(49.51,27.15)" id="img-56e88ff9-40">
          <path fill="none" d="M0,-24.61 L 0 24.61" class="primitive"/>
        </g>
        <g transform="translate(56.06,27.15)" id="img-56e88ff9-41">
          <path fill="none" d="M0,-24.61 L 0 24.61" class="primitive"/>
        </g>
        <g transform="translate(62.61,27.15)" id="img-56e88ff9-42">
          <path fill="none" d="M0,-24.61 L 0 24.61" class="primitive"/>
        </g>
        <g transform="translate(69.16,27.15)" id="img-56e88ff9-43">
          <path fill="none" d="M0,-24.61 L 0 24.61" class="primitive"/>
        </g>
        <g transform="translate(75.71,27.15)" id="img-56e88ff9-44">
          <path fill="none" d="M0,-24.61 L 0 24.61" class="primitive"/>
        </g>
        <g transform="translate(82.26,27.15)" id="img-56e88ff9-45">
          <path fill="none" d="M0,-24.61 L 0 24.61" class="primitive"/>
        </g>
      </g>
      <g class="guide ygridlines xfixed" stroke-dasharray="0.5,0.5" stroke-width="0.2" stroke="#D0D0E0" id="img-56e88ff9-46">
        <g transform="translate(49.51,49.75)" id="img-56e88ff9-47">
          <path fill="none" d="M-34.75,0 L 34.75 0" class="primitive"/>
        </g>
        <g transform="translate(49.51,45.99)" id="img-56e88ff9-48">
          <path fill="none" d="M-34.75,0 L 34.75 0" class="primitive"/>
        </g>
        <g transform="translate(49.51,42.22)" id="img-56e88ff9-49">
          <path fill="none" d="M-34.75,0 L 34.75 0" class="primitive"/>
        </g>
        <g transform="translate(49.51,38.45)" id="img-56e88ff9-50">
          <path fill="none" d="M-34.75,0 L 34.75 0" class="primitive"/>
        </g>
        <g transform="translate(49.51,34.68)" id="img-56e88ff9-51">
          <path fill="none" d="M-34.75,0 L 34.75 0" class="primitive"/>
        </g>
        <g transform="translate(49.51,30.92)" id="img-56e88ff9-52">
          <path fill="none" d="M-34.75,0 L 34.75 0" class="primitive"/>
        </g>
        <g transform="translate(49.51,27.15)" id="img-56e88ff9-53">
          <path fill="none" d="M-34.75,0 L 34.75 0" class="primitive"/>
        </g>
        <g transform="translate(49.51,23.38)" id="img-56e88ff9-54">
          <path fill="none" d="M-34.75,0 L 34.75 0" class="primitive"/>
        </g>
        <g transform="translate(49.51,19.61)" id="img-56e88ff9-55">
          <path fill="none" d="M-34.75,0 L 34.75 0" class="primitive"/>
        </g>
        <g transform="translate(49.51,15.84)" id="img-56e88ff9-56">
          <path fill="none" d="M-34.75,0 L 34.75 0" class="primitive"/>
        </g>
        <g transform="translate(49.51,12.08)" id="img-56e88ff9-57">
          <path fill="none" d="M-34.75,0 L 34.75 0" class="primitive"/>
        </g>
        <g transform="translate(49.51,8.31)" id="img-56e88ff9-58">
          <path fill="none" d="M-34.75,0 L 34.75 0" class="primitive"/>
        </g>
        <g transform="translate(49.51,4.54)" id="img-56e88ff9-59">
          <path fill="none" d="M-34.75,0 L 34.75 0" class="primitive"/>
        </g>
      </g>
      <g class="plotpanel" id="img-56e88ff9-60">
        <metadata>
          <boundingbox value="14.764166666666668mm 2.54mm 69.49583333333332mm 49.215mm"/>
          <unitbox value="-3.053629365735734 12.530797301780382 106.10725873147146 -13.061594603560767"/>
        </metadata>
        <g class="geometry" id="img-56e88ff9-61">
          <g stroke-width="0.3" id="img-56e88ff9-62">
            <g transform="translate(62.61,38.83)" id="img-56e88ff9-63" class="color_Renbaum-Wolff_et_al._(2013)" stroke="#64543B">
              <path fill="none" d="M0,-1.07 L 0 1.07" class="primitive"/>
            </g>
            <g transform="translate(63.27,39.62)" id="img-56e88ff9-64" class="color_Renbaum-Wolff_et_al._(2013)" stroke="#64543B">
              <path fill="none" d="M0,-1.06 L 0 1.06" class="primitive"/>
            </g>
            <g transform="translate(65.89,40.71)" id="img-56e88ff9-65" class="color_Renbaum-Wolff_et_al._(2013)" stroke="#64543B">
              <path fill="none" d="M0,-1.06 L 0 1.06" class="primitive"/>
            </g>
            <g transform="translate(68.51,42.47)" id="img-56e88ff9-66" class="color_Renbaum-Wolff_et_al._(2013)" stroke="#64543B">
              <path fill="none" d="M0,-1.05 L 0 1.05" class="primitive"/>
            </g>
            <g transform="translate(69.16,43.01)" id="img-56e88ff9-67" class="color_Renbaum-Wolff_et_al._(2013)" stroke="#64543B">
              <path fill="none" d="M0,-1.04 L 0 1.04" class="primitive"/>
            </g>
            <g transform="translate(71.13,43.93)" id="img-56e88ff9-68" class="color_Renbaum-Wolff_et_al._(2013)" stroke="#64543B">
              <path fill="none" d="M0,-1.05 L 0 1.05" class="primitive"/>
            </g>
            <g transform="translate(73.75,45.19)" id="img-56e88ff9-69" class="color_Renbaum-Wolff_et_al._(2013)" stroke="#64543B">
              <path fill="none" d="M0,-1.03 L 0 1.03" class="primitive"/>
            </g>
            <g transform="translate(33.14,7.17)" id="img-56e88ff9-70" class="color_Renbaum-Wolff_et_al._(2013)" stroke="#64543B">
              <path fill="none" d="M0,-10.17 L 0 10.17" class="primitive"/>
            </g>
            <g transform="translate(35.76,7.17)" id="img-56e88ff9-71" class="color_Renbaum-Wolff_et_al._(2013)" stroke="#64543B">
              <path fill="none" d="M0,-10.17 L 0 10.17" class="primitive"/>
            </g>
            <g transform="translate(36.41,7.17)" id="img-56e88ff9-72" class="color_Renbaum-Wolff_et_al._(2013)" stroke="#64543B">
              <path fill="none" d="M0,-10.17 L 0 10.17" class="primitive"/>
            </g>
            <g transform="translate(75.71,46.75)" id="img-56e88ff9-73" class="color_Renbaum-Wolff_et_al._(2013)" stroke="#64543B">
              <path fill="none" d="M0,-1.03 L 0 1.03" class="primitive"/>
            </g>
            <g transform="translate(33.14,7.17)" id="img-56e88ff9-74" class="color_Renbaum-Wolff_et_al._(2013)" stroke="#64543B">
              <path fill="none" d="M0,-10.17 L 0 10.17" class="primitive"/>
            </g>
            <g transform="translate(18.61,19.62)" id="img-56e88ff9-75" class="color_Abramson_et_al._(2013)" stroke="#372565">
              <path fill="none" d="M0,-3.38 L 0 3.38" class="primitive"/>
            </g>
            <g transform="translate(74.06,40.55)" id="img-56e88ff9-76" class="color_Kidd_et_al._(2014)" stroke="#7BAAC4">
              <path fill="none" d="M0,-5.72 L 0 5.72" class="primitive"/>
            </g>
            <g transform="translate(23.45,8.16)" id="img-56e88ff9-77" class="color_Pajunoja_et_al._(2014)" stroke="#8C6100">
              <path fill="none" d="M0,-3.61 L 0 3.61" class="primitive"/>
            </g>
            <g transform="translate(18.82,17.69)" id="img-56e88ff9-78" class="color_Zhang_et_al._(2015)" stroke="#008A4C">
              <path fill="none" d="M0,-5.4 L 0 5.4" class="primitive"/>
            </g>
            <g transform="translate(20.43,19.26)" id="img-56e88ff9-79" class="color_Zhang_et_al._(2015)" stroke="#008A4C">
              <path fill="none" d="M0,-4.47 L 0 4.47" class="primitive"/>
            </g>
            <g transform="translate(20.64,17.84)" id="img-56e88ff9-80" class="color_Zhang_et_al._(2015)" stroke="#008A4C">
              <path fill="none" d="M0,-5.38 L 0 5.38" class="primitive"/>
            </g>
            <g transform="translate(21.45,16.96)" id="img-56e88ff9-81" class="color_Zhang_et_al._(2015)" stroke="#008A4C">
              <path fill="none" d="M0,-5.18 L 0 5.18" class="primitive"/>
            </g>
            <g transform="translate(19.35,19.52)" id="img-56e88ff9-82" class="color_Zhang_et_al._(2015)" stroke="#008A4C">
              <path fill="none" d="M0,-4.6 L 0 4.6" class="primitive"/>
            </g>
            <g transform="translate(23.32,17.52)" id="img-56e88ff9-83" class="color_Zhang_et_al._(2015)" stroke="#008A4C">
              <path fill="none" d="M0,-5.14 L 0 5.14" class="primitive"/>
            </g>
            <g transform="translate(25.29,19.8)" id="img-56e88ff9-84" class="color_Zhang_et_al._(2015)" stroke="#008A4C">
              <path fill="none" d="M0,-4.37 L 0 4.37" class="primitive"/>
            </g>
            <g transform="translate(26.69,19.26)" id="img-56e88ff9-85" class="color_Zhang_et_al._(2015)" stroke="#008A4C">
              <path fill="none" d="M0,-4.86 L 0 4.86" class="primitive"/>
            </g>
            <g transform="translate(27.28,17.45)" id="img-56e88ff9-86" class="color_Zhang_et_al._(2015)" stroke="#008A4C">
              <path fill="none" d="M0,-4.99 L 0 4.99" class="primitive"/>
            </g>
            <g transform="translate(27.38,18.53)" id="img-56e88ff9-87" class="color_Zhang_et_al._(2015)" stroke="#008A4C">
              <path fill="none" d="M0,-5.08 L 0 5.08" class="primitive"/>
            </g>
            <g transform="translate(29.95,20.38)" id="img-56e88ff9-88" class="color_Zhang_et_al._(2015)" stroke="#008A4C">
              <path fill="none" d="M0,-4.39 L 0 4.39" class="primitive"/>
            </g>
            <g transform="translate(30.54,20.58)" id="img-56e88ff9-89" class="color_Zhang_et_al._(2015)" stroke="#008A4C">
              <path fill="none" d="M0,-4.58 L 0 4.58" class="primitive"/>
            </g>
            <g transform="translate(35.19,20.79)" id="img-56e88ff9-90" class="color_Zhang_et_al._(2015)" stroke="#008A4C">
              <path fill="none" d="M0,-4.75 L 0 4.75" class="primitive"/>
            </g>
            <g transform="translate(39.68,21.44)" id="img-56e88ff9-91" class="color_Zhang_et_al._(2015)" stroke="#008A4C">
              <path fill="none" d="M0,-4.84 L 0 4.84" class="primitive"/>
            </g>
            <g transform="translate(41.77,21.75)" id="img-56e88ff9-92" class="color_Zhang_et_al._(2015)" stroke="#008A4C">
              <path fill="none" d="M0,-4.28 L 0 4.28" class="primitive"/>
            </g>
            <g transform="translate(45.83,22.89)" id="img-56e88ff9-93" class="color_Zhang_et_al._(2015)" stroke="#008A4C">
              <path fill="none" d="M0,-4.39 L 0 4.39" class="primitive"/>
            </g>
            <g transform="translate(46.1,23.08)" id="img-56e88ff9-94" class="color_Zhang_et_al._(2015)" stroke="#008A4C">
              <path fill="none" d="M0,-4.5 L 0 4.5" class="primitive"/>
            </g>
            <g transform="translate(51.13,23.09)" id="img-56e88ff9-95" class="color_Zhang_et_al._(2015)" stroke="#008A4C">
              <path fill="none" d="M0,-4.58 L 0 4.58" class="primitive"/>
            </g>
            <g transform="translate(51.18,23.82)" id="img-56e88ff9-96" class="color_Zhang_et_al._(2015)" stroke="#008A4C">
              <path fill="none" d="M0,-4.71 L 0 4.71" class="primitive"/>
            </g>
            <g transform="translate(54.93,22.66)" id="img-56e88ff9-97" class="color_Zhang_et_al._(2015)" stroke="#008A4C">
              <path fill="none" d="M0,-4.45 L 0 4.45" class="primitive"/>
            </g>
            <g transform="translate(17.43,21.47)" id="img-56e88ff9-98" class="color_Grayson_et_al._(2016)" stroke="#79A432">
              <path fill="none" d="M0,-0.97 L 0 0.97" class="primitive"/>
            </g>
            <g transform="translate(17.41,27.73)" id="img-56e88ff9-99" class="color_Grayson_et_al._(2016)" stroke="#79A432">
              <path fill="none" d="M0,-1.2 L 0 1.2" class="primitive"/>
            </g>
            <g transform="translate(36.35,33.23)" id="img-56e88ff9-100" class="color_Grayson_et_al._(2016)" stroke="#79A432">
              <path fill="none" d="M0,-2.73 L 0 2.73" class="primitive"/>
            </g>
            <g transform="translate(36.29,33.08)" id="img-56e88ff9-101" class="color_Grayson_et_al._(2016)" stroke="#79A432">
              <path fill="none" d="M0,-3.36 L 0 3.36" class="primitive"/>
            </g>
            <g transform="translate(49.13,37.13)" id="img-56e88ff9-102" class="color_Grayson_et_al._(2016)" stroke="#79A432">
              <path fill="none" d="M0,-4.3 L 0 4.3" class="primitive"/>
            </g>
            <g transform="translate(42.77,32.29)" id="img-56e88ff9-103" class="color_Grayson_et_al._(2016)" stroke="#79A432">
              <path fill="none" d="M0,-1.01 L 0 1.01" class="primitive"/>
            </g>
            <g transform="translate(42.87,34.83)" id="img-56e88ff9-104" class="color_Grayson_et_al._(2016)" stroke="#79A432">
              <path fill="none" d="M0,-3.55 L 0 3.55" class="primitive"/>
            </g>
            <g transform="translate(16.76,26.43)" id="img-56e88ff9-105" class="color_S._Petters_et_al._(2019)" stroke="#600000">
              <path fill="none" d="M0,-2.22 L 0 2.22" class="primitive"/>
            </g>
            <g class="marker" id="img-56e88ff9-106">
              <g transform="translate(62.61,39.9)" id="img-56e88ff9-107" stroke="#64543B">
                <path fill="none" d="M-1.5,0 L 1.5 0" class="primitive"/>
              </g>
              <g transform="translate(63.27,40.68)" id="img-56e88ff9-108" stroke="#64543B">
                <path fill="none" d="M-1.5,0 L 1.5 0" class="primitive"/>
              </g>
              <g transform="translate(65.89,41.76)" id="img-56e88ff9-109" stroke="#64543B">
                <path fill="none" d="M-1.5,0 L 1.5 0" class="primitive"/>
              </g>
              <g transform="translate(68.51,43.51)" id="img-56e88ff9-110" stroke="#64543B">
                <path fill="none" d="M-1.5,0 L 1.5 0" class="primitive"/>
              </g>
              <g transform="translate(69.16,44.05)" id="img-56e88ff9-111" stroke="#64543B">
                <path fill="none" d="M-1.5,0 L 1.5 0" class="primitive"/>
              </g>
              <g transform="translate(71.13,44.98)" id="img-56e88ff9-112" stroke="#64543B">
                <path fill="none" d="M-1.5,0 L 1.5 0" class="primitive"/>
              </g>
              <g transform="translate(73.75,46.22)" id="img-56e88ff9-113" stroke="#64543B">
                <path fill="none" d="M-1.5,0 L 1.5 0" class="primitive"/>
              </g>
              <g transform="translate(33.14,17.34)" id="img-56e88ff9-114" stroke="#64543B">
                <path fill="none" d="M-1.5,0 L 1.5 0" class="primitive"/>
              </g>
              <g transform="translate(35.76,17.34)" id="img-56e88ff9-115" stroke="#64543B">
                <path fill="none" d="M-1.5,0 L 1.5 0" class="primitive"/>
              </g>
              <g transform="translate(36.41,17.34)" id="img-56e88ff9-116" stroke="#64543B">
                <path fill="none" d="M-1.5,0 L 1.5 0" class="primitive"/>
              </g>
              <g transform="translate(75.71,47.78)" id="img-56e88ff9-117" stroke="#64543B">
                <path fill="none" d="M-1.5,0 L 1.5 0" class="primitive"/>
              </g>
              <g transform="translate(33.14,17.34)" id="img-56e88ff9-118" stroke="#64543B">
                <path fill="none" d="M-1.5,0 L 1.5 0" class="primitive"/>
              </g>
              <g transform="translate(18.61,23)" id="img-56e88ff9-119" stroke="#372565">
                <path fill="none" d="M-1.5,0 L 1.5 0" class="primitive"/>
              </g>
              <g transform="translate(74.06,46.27)" id="img-56e88ff9-120" stroke="#7BAAC4">
                <path fill="none" d="M-1.5,0 L 1.5 0" class="primitive"/>
              </g>
              <g transform="translate(23.45,11.77)" id="img-56e88ff9-121" stroke="#8C6100">
                <path fill="none" d="M-1.5,0 L 1.5 0" class="primitive"/>
              </g>
              <g transform="translate(18.82,23.09)" id="img-56e88ff9-122" stroke="#008A4C">
                <path fill="none" d="M-1.5,0 L 1.5 0" class="primitive"/>
              </g>
              <g transform="translate(20.43,23.73)" id="img-56e88ff9-123" stroke="#008A4C">
                <path fill="none" d="M-1.5,0 L 1.5 0" class="primitive"/>
              </g>
              <g transform="translate(20.64,23.22)" id="img-56e88ff9-124" stroke="#008A4C">
                <path fill="none" d="M-1.5,0 L 1.5 0" class="primitive"/>
              </g>
              <g transform="translate(21.45,22.14)" id="img-56e88ff9-125" stroke="#008A4C">
                <path fill="none" d="M-1.5,0 L 1.5 0" class="primitive"/>
              </g>
              <g transform="translate(19.35,24.12)" id="img-56e88ff9-126" stroke="#008A4C">
                <path fill="none" d="M-1.5,0 L 1.5 0" class="primitive"/>
              </g>
              <g transform="translate(23.32,22.66)" id="img-56e88ff9-127" stroke="#008A4C">
                <path fill="none" d="M-1.5,0 L 1.5 0" class="primitive"/>
              </g>
              <g transform="translate(25.29,24.17)" id="img-56e88ff9-128" stroke="#008A4C">
                <path fill="none" d="M-1.5,0 L 1.5 0" class="primitive"/>
              </g>
              <g transform="translate(26.69,24.12)" id="img-56e88ff9-129" stroke="#008A4C">
                <path fill="none" d="M-1.5,0 L 1.5 0" class="primitive"/>
              </g>
              <g transform="translate(27.28,22.45)" id="img-56e88ff9-130" stroke="#008A4C">
                <path fill="none" d="M-1.5,0 L 1.5 0" class="primitive"/>
              </g>
              <g transform="translate(27.38,23.61)" id="img-56e88ff9-131" stroke="#008A4C">
                <path fill="none" d="M-1.5,0 L 1.5 0" class="primitive"/>
              </g>
              <g transform="translate(29.95,24.77)" id="img-56e88ff9-132" stroke="#008A4C">
                <path fill="none" d="M-1.5,0 L 1.5 0" class="primitive"/>
              </g>
              <g transform="translate(30.54,25.16)" id="img-56e88ff9-133" stroke="#008A4C">
                <path fill="none" d="M-1.5,0 L 1.5 0" class="primitive"/>
              </g>
              <g transform="translate(35.19,25.55)" id="img-56e88ff9-134" stroke="#008A4C">
                <path fill="none" d="M-1.5,0 L 1.5 0" class="primitive"/>
              </g>
              <g transform="translate(39.68,26.28)" id="img-56e88ff9-135" stroke="#008A4C">
                <path fill="none" d="M-1.5,0 L 1.5 0" class="primitive"/>
              </g>
              <g transform="translate(41.77,26.03)" id="img-56e88ff9-136" stroke="#008A4C">
                <path fill="none" d="M-1.5,0 L 1.5 0" class="primitive"/>
              </g>
              <g transform="translate(45.83,27.28)" id="img-56e88ff9-137" stroke="#008A4C">
                <path fill="none" d="M-1.5,0 L 1.5 0" class="primitive"/>
              </g>
              <g transform="translate(46.1,27.58)" id="img-56e88ff9-138" stroke="#008A4C">
                <path fill="none" d="M-1.5,0 L 1.5 0" class="primitive"/>
              </g>
              <g transform="translate(51.13,27.67)" id="img-56e88ff9-139" stroke="#008A4C">
                <path fill="none" d="M-1.5,0 L 1.5 0" class="primitive"/>
              </g>
              <g transform="translate(51.18,28.53)" id="img-56e88ff9-140" stroke="#008A4C">
                <path fill="none" d="M-1.5,0 L 1.5 0" class="primitive"/>
              </g>
              <g transform="translate(54.93,27.11)" id="img-56e88ff9-141" stroke="#008A4C">
                <path fill="none" d="M-1.5,0 L 1.5 0" class="primitive"/>
              </g>
              <g transform="translate(17.43,22.44)" id="img-56e88ff9-142" stroke="#79A432">
                <path fill="none" d="M-1.5,0 L 1.5 0" class="primitive"/>
              </g>
              <g transform="translate(17.41,28.94)" id="img-56e88ff9-143" stroke="#79A432">
                <path fill="none" d="M-1.5,0 L 1.5 0" class="primitive"/>
              </g>
              <g transform="translate(36.35,35.96)" id="img-56e88ff9-144" stroke="#79A432">
                <path fill="none" d="M-1.5,0 L 1.5 0" class="primitive"/>
              </g>
              <g transform="translate(36.29,36.44)" id="img-56e88ff9-145" stroke="#79A432">
                <path fill="none" d="M-1.5,0 L 1.5 0" class="primitive"/>
              </g>
              <g transform="translate(49.13,41.44)" id="img-56e88ff9-146" stroke="#79A432">
                <path fill="none" d="M-1.5,0 L 1.5 0" class="primitive"/>
              </g>
              <g transform="translate(42.77,33.3)" id="img-56e88ff9-147" stroke="#79A432">
                <path fill="none" d="M-1.5,0 L 1.5 0" class="primitive"/>
              </g>
              <g transform="translate(42.87,38.38)" id="img-56e88ff9-148" stroke="#79A432">
                <path fill="none" d="M-1.5,0 L 1.5 0" class="primitive"/>
              </g>
              <g transform="translate(16.76,28.65)" id="img-56e88ff9-149" stroke="#600000">
                <path fill="none" d="M-1.5,0 L 1.5 0" class="primitive"/>
              </g>
            </g>
            <g class="marker" id="img-56e88ff9-150">
              <g transform="translate(62.61,37.77)" id="img-56e88ff9-151" stroke="#64543B">
                <path fill="none" d="M-1.5,0 L 1.5 0" class="primitive"/>
              </g>
              <g transform="translate(63.27,38.56)" id="img-56e88ff9-152" stroke="#64543B">
                <path fill="none" d="M-1.5,0 L 1.5 0" class="primitive"/>
              </g>
              <g transform="translate(65.89,39.65)" id="img-56e88ff9-153" stroke="#64543B">
                <path fill="none" d="M-1.5,0 L 1.5 0" class="primitive"/>
              </g>
              <g transform="translate(68.51,41.42)" id="img-56e88ff9-154" stroke="#64543B">
                <path fill="none" d="M-1.5,0 L 1.5 0" class="primitive"/>
              </g>
              <g transform="translate(69.16,41.96)" id="img-56e88ff9-155" stroke="#64543B">
                <path fill="none" d="M-1.5,0 L 1.5 0" class="primitive"/>
              </g>
              <g transform="translate(71.13,42.88)" id="img-56e88ff9-156" stroke="#64543B">
                <path fill="none" d="M-1.5,0 L 1.5 0" class="primitive"/>
              </g>
              <g transform="translate(73.75,44.15)" id="img-56e88ff9-157" stroke="#64543B">
                <path fill="none" d="M-1.5,0 L 1.5 0" class="primitive"/>
              </g>
              <g transform="translate(33.14,-3)" id="img-56e88ff9-158" stroke="#64543B">
                <path fill="none" d="M-1.5,0 L 1.5 0" class="primitive"/>
              </g>
              <g transform="translate(35.76,-3)" id="img-56e88ff9-159" stroke="#64543B">
                <path fill="none" d="M-1.5,0 L 1.5 0" class="primitive"/>
              </g>
              <g transform="translate(36.41,-3)" id="img-56e88ff9-160" stroke="#64543B">
                <path fill="none" d="M-1.5,0 L 1.5 0" class="primitive"/>
              </g>
              <g transform="translate(75.71,45.72)" id="img-56e88ff9-161" stroke="#64543B">
                <path fill="none" d="M-1.5,0 L 1.5 0" class="primitive"/>
              </g>
              <g transform="translate(33.14,-3)" id="img-56e88ff9-162" stroke="#64543B">
                <path fill="none" d="M-1.5,0 L 1.5 0" class="primitive"/>
              </g>
              <g transform="translate(18.61,16.24)" id="img-56e88ff9-163" stroke="#372565">
                <path fill="none" d="M-1.5,0 L 1.5 0" class="primitive"/>
              </g>
              <g transform="translate(74.06,34.83)" id="img-56e88ff9-164" stroke="#7BAAC4">
                <path fill="none" d="M-1.5,0 L 1.5 0" class="primitive"/>
              </g>
              <g transform="translate(23.45,4.54)" id="img-56e88ff9-165" stroke="#8C6100">
                <path fill="none" d="M-1.5,0 L 1.5 0" class="primitive"/>
              </g>
              <g transform="translate(18.82,12.29)" id="img-56e88ff9-166" stroke="#008A4C">
                <path fill="none" d="M-1.5,0 L 1.5 0" class="primitive"/>
              </g>
              <g transform="translate(20.43,14.78)" id="img-56e88ff9-167" stroke="#008A4C">
                <path fill="none" d="M-1.5,0 L 1.5 0" class="primitive"/>
              </g>
              <g transform="translate(20.64,12.46)" id="img-56e88ff9-168" stroke="#008A4C">
                <path fill="none" d="M-1.5,0 L 1.5 0" class="primitive"/>
              </g>
              <g transform="translate(21.45,11.77)" id="img-56e88ff9-169" stroke="#008A4C">
                <path fill="none" d="M-1.5,0 L 1.5 0" class="primitive"/>
              </g>
              <g transform="translate(19.35,14.91)" id="img-56e88ff9-170" stroke="#008A4C">
                <path fill="none" d="M-1.5,0 L 1.5 0" class="primitive"/>
              </g>
              <g transform="translate(23.32,12.38)" id="img-56e88ff9-171" stroke="#008A4C">
                <path fill="none" d="M-1.5,0 L 1.5 0" class="primitive"/>
              </g>
              <g transform="translate(25.29,15.43)" id="img-56e88ff9-172" stroke="#008A4C">
                <path fill="none" d="M-1.5,0 L 1.5 0" class="primitive"/>
              </g>
              <g transform="translate(26.69,14.4)" id="img-56e88ff9-173" stroke="#008A4C">
                <path fill="none" d="M-1.5,0 L 1.5 0" class="primitive"/>
              </g>
              <g transform="translate(27.28,12.46)" id="img-56e88ff9-174" stroke="#008A4C">
                <path fill="none" d="M-1.5,0 L 1.5 0" class="primitive"/>
              </g>
              <g transform="translate(27.38,13.45)" id="img-56e88ff9-175" stroke="#008A4C">
                <path fill="none" d="M-1.5,0 L 1.5 0" class="primitive"/>
              </g>
              <g transform="translate(29.95,15.99)" id="img-56e88ff9-176" stroke="#008A4C">
                <path fill="none" d="M-1.5,0 L 1.5 0" class="primitive"/>
              </g>
              <g transform="translate(30.54,15.99)" id="img-56e88ff9-177" stroke="#008A4C">
                <path fill="none" d="M-1.5,0 L 1.5 0" class="primitive"/>
              </g>
              <g transform="translate(35.19,16.04)" id="img-56e88ff9-178" stroke="#008A4C">
                <path fill="none" d="M-1.5,0 L 1.5 0" class="primitive"/>
              </g>
              <g transform="translate(39.68,16.6)" id="img-56e88ff9-179" stroke="#008A4C">
                <path fill="none" d="M-1.5,0 L 1.5 0" class="primitive"/>
              </g>
              <g transform="translate(41.77,17.46)" id="img-56e88ff9-180" stroke="#008A4C">
                <path fill="none" d="M-1.5,0 L 1.5 0" class="primitive"/>
              </g>
              <g transform="translate(45.83,18.5)" id="img-56e88ff9-181" stroke="#008A4C">
                <path fill="none" d="M-1.5,0 L 1.5 0" class="primitive"/>
              </g>
              <g transform="translate(46.1,18.59)" id="img-56e88ff9-182" stroke="#008A4C">
                <path fill="none" d="M-1.5,0 L 1.5 0" class="primitive"/>
              </g>
              <g transform="translate(51.13,18.5)" id="img-56e88ff9-183" stroke="#008A4C">
                <path fill="none" d="M-1.5,0 L 1.5 0" class="primitive"/>
              </g>
              <g transform="translate(51.18,19.11)" id="img-56e88ff9-184" stroke="#008A4C">
                <path fill="none" d="M-1.5,0 L 1.5 0" class="primitive"/>
              </g>
              <g transform="translate(54.93,18.2)" id="img-56e88ff9-185" stroke="#008A4C">
                <path fill="none" d="M-1.5,0 L 1.5 0" class="primitive"/>
              </g>
              <g transform="translate(17.43,20.5)" id="img-56e88ff9-186" stroke="#79A432">
                <path fill="none" d="M-1.5,0 L 1.5 0" class="primitive"/>
              </g>
              <g transform="translate(17.41,26.53)" id="img-56e88ff9-187" stroke="#79A432">
                <path fill="none" d="M-1.5,0 L 1.5 0" class="primitive"/>
              </g>
              <g transform="translate(36.35,30.5)" id="img-56e88ff9-188" stroke="#79A432">
                <path fill="none" d="M-1.5,0 L 1.5 0" class="primitive"/>
              </g>
              <g transform="translate(36.29,29.72)" id="img-56e88ff9-189" stroke="#79A432">
                <path fill="none" d="M-1.5,0 L 1.5 0" class="primitive"/>
              </g>
              <g transform="translate(49.13,32.83)" id="img-56e88ff9-190" stroke="#79A432">
                <path fill="none" d="M-1.5,0 L 1.5 0" class="primitive"/>
              </g>
              <g transform="translate(42.77,31.28)" id="img-56e88ff9-191" stroke="#79A432">
                <path fill="none" d="M-1.5,0 L 1.5 0" class="primitive"/>
              </g>
              <g transform="translate(42.87,31.28)" id="img-56e88ff9-192" stroke="#79A432">
                <path fill="none" d="M-1.5,0 L 1.5 0" class="primitive"/>
              </g>
              <g transform="translate(16.76,24.22)" id="img-56e88ff9-193" stroke="#600000">
                <path fill="none" d="M-1.5,0 L 1.5 0" class="primitive"/>
              </g>
            </g>
          </g>
        </g>
        <g class="geometry" id="img-56e88ff9-194">
          <g stroke-width="0.18" id="img-56e88ff9-195">
            <g class="color_S._Petters_et_al._(2019)" fill-opacity="0.6" stroke="#8B0000" fill="#8B0000" id="img-56e88ff9-196">
              <g class="marker" id="img-56e88ff9-197">
                <g transform="translate(16.76,27.15)" id="img-56e88ff9-198">
                  <path d="M0,-0.55 L 0.55 -1.1 1.1 -0.55 0.55 -0 1.1 0.55 0.55 1.1 0 0.55 -0.55 1.1 -1.1 0.55 -0.55 -0 -1.1 -0.55 -0.55 -1.1 z" class="primitive"/>
                </g>
              </g>
            </g>
            <g class="color_Grayson_et_al._(2016)" fill-opacity="0.6" stroke="#A2CD5A" fill="#A2CD5A" id="img-56e88ff9-199">
              <g class="marker" id="img-56e88ff9-200">
                <g transform="translate(42.87,34.68)" id="img-56e88ff9-201">
                  <path d="M-1.07,-0.93 L 1.07 -0.93 0 0.93 0 0.93 z" class="primitive"/>
                </g>
              </g>
            </g>
            <g class="color_Grayson_et_al._(2016)" fill-opacity="0.6" stroke="#A2CD5A" fill="#A2CD5A" id="img-56e88ff9-202">
              <g class="marker" id="img-56e88ff9-203">
                <g transform="translate(42.77,32.62)" id="img-56e88ff9-204">
                  <path d="M-1.07,-0.93 L 1.07 -0.93 0 0.93 0 0.93 z" class="primitive"/>
                </g>
              </g>
            </g>
            <g class="color_Grayson_et_al._(2016)" fill-opacity="0.6" stroke="#A2CD5A" fill="#A2CD5A" id="img-56e88ff9-205">
              <g class="marker" id="img-56e88ff9-206">
                <g transform="translate(49.13,35.55)" id="img-56e88ff9-207">
                  <path d="M-1.07,-0.93 L 1.07 -0.93 0 0.93 0 0.93 z" class="primitive"/>
                </g>
              </g>
            </g>
            <g class="color_Grayson_et_al._(2016)" fill-opacity="0.6" stroke="#A2CD5A" fill="#A2CD5A" id="img-56e88ff9-208">
              <g class="marker" id="img-56e88ff9-209">
                <g transform="translate(36.29,34.42)" id="img-56e88ff9-210">
                  <path d="M-1.07,-0.93 L 1.07 -0.93 0 0.93 0 0.93 z" class="primitive"/>
                </g>
              </g>
            </g>
            <g class="color_Grayson_et_al._(2016)" fill-opacity="0.6" stroke="#A2CD5A" fill="#A2CD5A" id="img-56e88ff9-211">
              <g class="marker" id="img-56e88ff9-212">
                <g transform="translate(36.35,31.8)" id="img-56e88ff9-213">
                  <path d="M-1.07,-0.93 L 1.07 -0.93 0 0.93 0 0.93 z" class="primitive"/>
                </g>
              </g>
            </g>
            <g class="color_Grayson_et_al._(2016)" fill-opacity="0.6" stroke="#A2CD5A" fill="#A2CD5A" id="img-56e88ff9-214">
              <g class="marker" id="img-56e88ff9-215">
                <g transform="translate(17.41,28.6)" id="img-56e88ff9-216">
                  <path d="M-1.07,-0.93 L 1.07 -0.93 -0 0.93 -0 0.93 z" class="primitive"/>
                </g>
              </g>
            </g>
            <g class="color_Grayson_et_al._(2016)" fill-opacity="0.6" stroke="#A2CD5A" fill="#A2CD5A" id="img-56e88ff9-217">
              <g class="marker" id="img-56e88ff9-218">
                <g transform="translate(17.43,21.84)" id="img-56e88ff9-219">
                  <path d="M-1.07,-0.93 L 1.07 -0.93 0 0.93 0 0.93 z" class="primitive"/>
                </g>
              </g>
            </g>
            <g class="color_Zhang_et_al._(2015)" fill-opacity="0.6" stroke="#3CB371" fill="#3CB371" id="img-56e88ff9-220">
              <g class="marker" id="img-56e88ff9-221">
                <g transform="translate(54.93,23.19)" id="img-56e88ff9-222">
                  <path d="M-1.07,0.93 L 1.07 0.93 0 -0.93 0 -0.93 z" class="primitive"/>
                </g>
              </g>
            </g>
            <g class="color_Zhang_et_al._(2015)" fill-opacity="0.6" stroke="#3CB371" fill="#3CB371" id="img-56e88ff9-223">
              <g class="marker" id="img-56e88ff9-224">
                <g transform="translate(51.18,24.48)" id="img-56e88ff9-225">
                  <path d="M-1.07,0.93 L 1.07 0.93 0 -0.93 0 -0.93 z" class="primitive"/>
                </g>
              </g>
            </g>
            <g class="color_Zhang_et_al._(2015)" fill-opacity="0.6" stroke="#3CB371" fill="#3CB371" id="img-56e88ff9-226">
              <g class="marker" id="img-56e88ff9-227">
                <g transform="translate(51.13,23.7)" id="img-56e88ff9-228">
                  <path d="M-1.07,0.93 L 1.07 0.93 0 -0.93 0 -0.93 z" class="primitive"/>
                </g>
              </g>
            </g>
            <g class="color_Zhang_et_al._(2015)" fill-opacity="0.6" stroke="#3CB371" fill="#3CB371" id="img-56e88ff9-229">
              <g class="marker" id="img-56e88ff9-230">
                <g transform="translate(46.1,23.61)" id="img-56e88ff9-231">
                  <path d="M-1.07,0.93 L 1.07 0.93 0 -0.93 0 -0.93 z" class="primitive"/>
                </g>
              </g>
            </g>
            <g class="color_Zhang_et_al._(2015)" fill-opacity="0.6" stroke="#3CB371" fill="#3CB371" id="img-56e88ff9-232">
              <g class="marker" id="img-56e88ff9-233">
                <g transform="translate(45.83,23.23)" id="img-56e88ff9-234">
                  <path d="M-1.07,0.93 L 1.07 0.93 0 -0.93 0 -0.93 z" class="primitive"/>
                </g>
              </g>
            </g>
            <g class="color_Zhang_et_al._(2015)" fill-opacity="0.6" stroke="#3CB371" fill="#3CB371" id="img-56e88ff9-235">
              <g class="marker" id="img-56e88ff9-236">
                <g transform="translate(41.77,21.93)" id="img-56e88ff9-237">
                  <path d="M-1.07,0.93 L 1.07 0.93 0 -0.93 0 -0.93 z" class="primitive"/>
                </g>
              </g>
            </g>
            <g class="color_Zhang_et_al._(2015)" fill-opacity="0.6" stroke="#3CB371" fill="#3CB371" id="img-56e88ff9-238">
              <g class="marker" id="img-56e88ff9-239">
                <g transform="translate(39.68,22.27)" id="img-56e88ff9-240">
                  <path d="M-1.07,0.93 L 1.07 0.93 0 -0.93 0 -0.93 z" class="primitive"/>
                </g>
              </g>
            </g>
            <g class="color_Zhang_et_al._(2015)" fill-opacity="0.6" stroke="#3CB371" fill="#3CB371" id="img-56e88ff9-241">
              <g class="marker" id="img-56e88ff9-242">
                <g transform="translate(35.19,20.64)" id="img-56e88ff9-243">
                  <path d="M-1.07,0.93 L 1.07 0.93 0 -0.93 0 -0.93 z" class="primitive"/>
                </g>
              </g>
            </g>
            <g class="color_Zhang_et_al._(2015)" fill-opacity="0.6" stroke="#3CB371" fill="#3CB371" id="img-56e88ff9-244">
              <g class="marker" id="img-56e88ff9-245">
                <g transform="translate(30.54,21.11)" id="img-56e88ff9-246">
                  <path d="M-1.07,0.93 L 1.07 0.93 0 -0.93 0 -0.93 z" class="primitive"/>
                </g>
              </g>
            </g>
            <g class="color_Zhang_et_al._(2015)" fill-opacity="0.6" stroke="#3CB371" fill="#3CB371" id="img-56e88ff9-247">
              <g class="marker" id="img-56e88ff9-248">
                <g transform="translate(29.95,21.02)" id="img-56e88ff9-249">
                  <path d="M-1.07,0.93 L 1.07 0.93 0 -0.93 0 -0.93 z" class="primitive"/>
                </g>
              </g>
            </g>
            <g class="color_Zhang_et_al._(2015)" fill-opacity="0.6" stroke="#3CB371" fill="#3CB371" id="img-56e88ff9-250">
              <g class="marker" id="img-56e88ff9-251">
                <g transform="translate(27.38,19.51)" id="img-56e88ff9-252">
                  <path d="M-1.07,0.93 L 1.07 0.93 0 -0.93 0 -0.93 z" class="primitive"/>
                </g>
              </g>
            </g>
            <g class="color_Zhang_et_al._(2015)" fill-opacity="0.6" stroke="#3CB371" fill="#3CB371" id="img-56e88ff9-253">
              <g class="marker" id="img-56e88ff9-254">
                <g transform="translate(27.28,18.44)" id="img-56e88ff9-255">
                  <path d="M-1.07,0.93 L 1.07 0.93 0 -0.93 0 -0.93 z" class="primitive"/>
                </g>
              </g>
            </g>
            <g class="color_Zhang_et_al._(2015)" fill-opacity="0.6" stroke="#3CB371" fill="#3CB371" id="img-56e88ff9-256">
              <g class="marker" id="img-56e88ff9-257">
                <g transform="translate(26.69,19.38)" id="img-56e88ff9-258">
                  <path d="M-1.07,0.93 L 1.07 0.93 0 -0.93 0 -0.93 z" class="primitive"/>
                </g>
              </g>
            </g>
            <g class="color_Zhang_et_al._(2015)" fill-opacity="0.6" stroke="#3CB371" fill="#3CB371" id="img-56e88ff9-259">
              <g class="marker" id="img-56e88ff9-260">
                <g transform="translate(25.29,20.2)" id="img-56e88ff9-261">
                  <path d="M-1.07,0.93 L 1.07 0.93 0 -0.93 0 -0.93 z" class="primitive"/>
                </g>
              </g>
            </g>
            <g class="color_Zhang_et_al._(2015)" fill-opacity="0.6" stroke="#3CB371" fill="#3CB371" id="img-56e88ff9-262">
              <g class="marker" id="img-56e88ff9-263">
                <g transform="translate(23.32,18.26)" id="img-56e88ff9-264">
                  <path d="M-1.07,0.93 L 1.07 0.93 0 -0.93 0 -0.93 z" class="primitive"/>
                </g>
              </g>
            </g>
            <g class="color_Zhang_et_al._(2015)" fill-opacity="0.6" stroke="#3CB371" fill="#3CB371" id="img-56e88ff9-265">
              <g class="marker" id="img-56e88ff9-266">
                <g transform="translate(19.35,19.81)" id="img-56e88ff9-267">
                  <path d="M-1.07,0.93 L 1.07 0.93 0 -0.93 0 -0.93 z" class="primitive"/>
                </g>
              </g>
            </g>
            <g class="color_Zhang_et_al._(2015)" fill-opacity="0.6" stroke="#3CB371" fill="#3CB371" id="img-56e88ff9-268">
              <g class="marker" id="img-56e88ff9-269">
                <g transform="translate(21.45,17.83)" id="img-56e88ff9-270">
                  <path d="M-1.07,0.93 L 1.07 0.93 0 -0.93 0 -0.93 z" class="primitive"/>
                </g>
              </g>
            </g>
            <g class="color_Zhang_et_al._(2015)" fill-opacity="0.6" stroke="#3CB371" fill="#3CB371" id="img-56e88ff9-271">
              <g class="marker" id="img-56e88ff9-272">
                <g transform="translate(20.64,18.56)" id="img-56e88ff9-273">
                  <path d="M-1.07,0.93 L 1.07 0.93 0 -0.93 0 -0.93 z" class="primitive"/>
                </g>
              </g>
            </g>
            <g class="color_Zhang_et_al._(2015)" fill-opacity="0.6" stroke="#3CB371" fill="#3CB371" id="img-56e88ff9-274">
              <g class="marker" id="img-56e88ff9-275">
                <g transform="translate(20.43,19.38)" id="img-56e88ff9-276">
                  <path d="M-1.07,0.93 L 1.07 0.93 0 -0.93 0 -0.93 z" class="primitive"/>
                </g>
              </g>
            </g>
            <g class="color_Zhang_et_al._(2015)" fill-opacity="0.6" stroke="#3CB371" fill="#3CB371" id="img-56e88ff9-277">
              <g class="marker" id="img-56e88ff9-278">
                <g transform="translate(18.82,18.17)" id="img-56e88ff9-279">
                  <path d="M-1.07,0.93 L 1.07 0.93 0 -0.93 0 -0.93 z" class="primitive"/>
                </g>
              </g>
            </g>
            <g class="color_Pajunoja_et_al._(2014)" fill-opacity="0.6" stroke="#B8860B" fill="#B8860B" id="img-56e88ff9-280">
              <g class="marker" id="img-56e88ff9-281">
                <g transform="translate(23.45,8.2)" id="img-56e88ff9-282">
                  <path d="M-0.87,-0.87 L -0.87 0.87 0.87 0.87 0.87 -0.87 z" class="primitive"/>
                </g>
              </g>
            </g>
            <g class="color_Kidd_et_al._(2014)" fill-opacity="0.6" stroke="#A4D3EE" fill="#A4D3EE" id="img-56e88ff9-283">
              <g class="marker" id="img-56e88ff9-284">
                <g transform="translate(74.06,35.99)" id="img-56e88ff9-285">
                  <circle cx="0" cy="0" r="1.23" class="primitive"/>
                </g>
              </g>
            </g>
            <g class="color_Abramson_et_al._(2013)" fill-opacity="0.6" stroke="#5D478B" fill="#5D478B" id="img-56e88ff9-286">
              <g class="marker" id="img-56e88ff9-287">
                <g transform="translate(18.61,19.43)" id="img-56e88ff9-288">
                  <path d="M0,-1.23 L 1.23 0 0 1.23 -1.23 0 z" class="primitive"/>
                </g>
              </g>
            </g>
            <g class="color_Renbaum-Wolff_et_al._(2013)" fill-opacity="0.6" stroke="#8B795E" fill="#8B795E" id="img-56e88ff9-289">
              <g class="marker" id="img-56e88ff9-290">
                <g transform="translate(33.14,-3)" id="img-56e88ff9-291">
                  <path d="M-1.23,-0.4 L 1.23 -0.4 1.23 0.4 -1.23 0.4 z" class="primitive"/>
                </g>
              </g>
            </g>
            <g class="color_Renbaum-Wolff_et_al._(2013)" fill-opacity="0.6" stroke="#8B795E" fill="#8B795E" id="img-56e88ff9-292">
              <g class="marker" id="img-56e88ff9-293">
                <g transform="translate(75.71,46.76)" id="img-56e88ff9-294">
                  <path d="M-1.23,-0.4 L 1.23 -0.4 1.23 0.4 -1.23 0.4 z" class="primitive"/>
                </g>
              </g>
            </g>
            <g class="color_Renbaum-Wolff_et_al._(2013)" fill-opacity="0.6" stroke="#8B795E" fill="#8B795E" id="img-56e88ff9-295">
              <g class="marker" id="img-56e88ff9-296">
                <g transform="translate(36.41,-3)" id="img-56e88ff9-297">
                  <path d="M-1.23,-0.4 L 1.23 -0.4 1.23 0.4 -1.23 0.4 z" class="primitive"/>
                </g>
              </g>
            </g>
            <g class="color_Renbaum-Wolff_et_al._(2013)" fill-opacity="0.6" stroke="#8B795E" fill="#8B795E" id="img-56e88ff9-298">
              <g class="marker" id="img-56e88ff9-299">
                <g transform="translate(35.76,-3)" id="img-56e88ff9-300">
                  <path d="M-1.23,-0.4 L 1.23 -0.4 1.23 0.4 -1.23 0.4 z" class="primitive"/>
                </g>
              </g>
            </g>
            <g class="color_Renbaum-Wolff_et_al._(2013)" fill-opacity="0.6" stroke="#8B795E" fill="#8B795E" id="img-56e88ff9-301">
              <g class="marker" id="img-56e88ff9-302">
                <g transform="translate(33.14,-3)" id="img-56e88ff9-303">
                  <path d="M-1.23,-0.4 L 1.23 -0.4 1.23 0.4 -1.23 0.4 z" class="primitive"/>
                </g>
              </g>
            </g>
            <g class="color_Renbaum-Wolff_et_al._(2013)" fill-opacity="0.6" stroke="#8B795E" fill="#8B795E" id="img-56e88ff9-304">
              <g class="marker" id="img-56e88ff9-305">
                <g transform="translate(73.75,45.19)" id="img-56e88ff9-306">
                  <path d="M-1.23,-0.4 L 1.23 -0.4 1.23 0.4 -1.23 0.4 z" class="primitive"/>
                </g>
              </g>
            </g>
            <g class="color_Renbaum-Wolff_et_al._(2013)" fill-opacity="0.6" stroke="#8B795E" fill="#8B795E" id="img-56e88ff9-307">
              <g class="marker" id="img-56e88ff9-308">
                <g transform="translate(71.13,43.95)" id="img-56e88ff9-309">
                  <path d="M-1.23,-0.4 L 1.23 -0.4 1.23 0.4 -1.23 0.4 z" class="primitive"/>
                </g>
              </g>
            </g>
            <g class="color_Renbaum-Wolff_et_al._(2013)" fill-opacity="0.6" stroke="#8B795E" fill="#8B795E" id="img-56e88ff9-310">
              <g class="marker" id="img-56e88ff9-311">
                <g transform="translate(69.16,43.01)" id="img-56e88ff9-312">
                  <path d="M-1.23,-0.4 L 1.23 -0.4 1.23 0.4 -1.23 0.4 z" class="primitive"/>
                </g>
              </g>
            </g>
            <g class="color_Renbaum-Wolff_et_al._(2013)" fill-opacity="0.6" stroke="#8B795E" fill="#8B795E" id="img-56e88ff9-313">
              <g class="marker" id="img-56e88ff9-314">
                <g transform="translate(68.51,42.47)" id="img-56e88ff9-315">
                  <path d="M-1.23,-0.4 L 1.23 -0.4 1.23 0.4 -1.23 0.4 z" class="primitive"/>
                </g>
              </g>
            </g>
            <g class="color_Renbaum-Wolff_et_al._(2013)" fill-opacity="0.6" stroke="#8B795E" fill="#8B795E" id="img-56e88ff9-316">
              <g class="marker" id="img-56e88ff9-317">
                <g transform="translate(65.89,40.71)" id="img-56e88ff9-318">
                  <path d="M-1.23,-0.4 L 1.23 -0.4 1.23 0.4 -1.23 0.4 z" class="primitive"/>
                </g>
              </g>
            </g>
            <g class="color_Renbaum-Wolff_et_al._(2013)" fill-opacity="0.6" stroke="#8B795E" fill="#8B795E" id="img-56e88ff9-319">
              <g class="marker" id="img-56e88ff9-320">
                <g transform="translate(63.27,39.63)" id="img-56e88ff9-321">
                  <path d="M-1.23,-0.4 L 1.23 -0.4 1.23 0.4 -1.23 0.4 z" class="primitive"/>
                </g>
              </g>
            </g>
            <g class="color_Renbaum-Wolff_et_al._(2013)" fill-opacity="0.6" stroke="#8B795E" fill="#8B795E" id="img-56e88ff9-322">
              <g class="marker" id="img-56e88ff9-323">
                <g transform="translate(62.61,38.83)" id="img-56e88ff9-324">
                  <path d="M-1.23,-0.4 L 1.23 -0.4 1.23 0.4 -1.23 0.4 z" class="primitive"/>
                </g>
              </g>
            </g>
          </g>
        </g>
        <g stroke-width="0.53" class="geometry" fill-opacity="0.15" fill="#000000" id="img-56e88ff9-325">
          <g transform="translate(49.35,32.9)" id="img-56e88ff9-326">
            <path d="M32.58,28.08 L 32.52 28.04 32.45 28 32.39 27.96 32.32 27.93 32.26 27.89 32.19 27.85 32.13 27.81 32.06 27.78 31.99 27.74 31.93 27.7 31.86 27.66 31.8 27.63 31.73 27.59 31.67 27.55 31.6 27.52 31.54 27.48 31.47 27.44 31.41 27.4 31.34 27.37 31.27 27.33 31.21 27.29 31.14 27.26 31.08 27.22 31.01 27.18 30.95 27.14 30.88 27.11 30.82 27.07 30.75 27.03 30.68 27 30.62 26.96 30.55 26.92 30.49 26.89 30.42 26.85 30.36 26.81 30.29 26.78 30.23 26.74 30.16 26.7 30.1 26.67 30.03 26.63 29.96 26.59 29.9 26.56 29.83 26.52 29.77 26.48 29.7 26.45 29.64 26.41 29.57 26.37 29.51 26.34 29.44 26.3 29.37 26.26 29.31 26.23 29.24 26.19 29.18 26.15 29.11 26.12 29.05 26.08 28.98 26.05 28.92 26.01 28.85 25.97 28.79 25.94 28.72 25.9 28.65 25.86 28.59 25.83 28.52 25.79 28.46 25.76 28.39 25.72 28.33 25.68 28.26 25.65 28.2 25.61 28.13 25.58 28.06 25.54 28 25.5 27.93 25.47 27.87 25.43 27.8 25.4 27.74 25.36 27.67 25.32 27.61 25.29 27.54 25.25 27.48 25.22 27.41 25.18 27.34 25.15 27.28 25.11 27.21 25.07 27.15 25.04 27.08 25 27.02 24.97 26.95 24.93 26.89 24.9 26.82 24.86 26.76 24.83 26.69 24.79 26.62 24.75 26.56 24.72 26.49 24.68 26.43 24.65 26.36 24.61 26.3 24.58 26.23 24.54 26.17 24.51 26.1 24.47 26.03 24.44 25.97 24.4 25.9 24.37 25.84 24.33 25.77 24.3 25.71 24.26 25.64 24.23 25.58 24.19 25.51 24.16 25.45 24.12 25.38 24.09 25.31 24.05 25.25 24.02 25.18 23.98 25.12 23.95 25.05 23.91 24.99 23.88 24.92 23.84 24.86 23.81 24.79 23.77 24.72 23.74 24.66 23.7 24.59 23.67 24.53 23.63 24.46 23.6 24.4 23.56 24.33 23.53 24.27 23.49 24.2 23.46 24.14 23.42 24.07 23.39 24 23.36 23.94 23.32 23.87 23.29 23.81 23.25 23.74 23.22 23.68 23.18 23.61 23.15 23.55 23.11 23.48 23.08 23.41 23.05 23.35 23.01 23.28 22.98 23.22 22.94 23.15 22.91 23.09 22.87 23.02 22.84 22.96 22.81 22.89 22.77 22.83 22.74 22.76 22.7 22.69 22.67 22.63 22.63 22.56 22.6 22.5 22.57 22.43 22.53 22.37 22.5 22.3 22.46 22.24 22.43 22.17 22.4 22.1 22.36 22.04 22.33 21.97 22.3 21.91 22.26 21.84 22.23 21.78 22.19 21.71 22.16 21.65 22.13 21.58 22.09 21.52 22.06 21.45 22.02 21.38 21.99 21.32 21.96 21.25 21.92 21.19 21.89 21.12 21.86 21.06 21.82 20.99 21.79 20.93 21.76 20.86 21.72 20.79 21.69 20.73 21.66 20.66 21.62 20.6 21.59 20.53 21.56 20.47 21.52 20.4 21.49 20.34 21.46 20.27 21.42 20.21 21.39 20.14 21.36 20.07 21.32 20.01 21.29 19.94 21.26 19.88 21.22 19.81 21.19 19.75 21.16 19.68 21.12 19.62 21.09 19.55 21.06 19.49 21.02 19.42 20.99 19.35 20.96 19.29 20.92 19.22 20.89 19.16 20.86 19.09 20.83 19.03 20.79 18.96 20.76 18.9 20.73 18.83 20.69 18.76 20.66 18.7 20.63 18.63 20.6 18.57 20.56 18.5 20.53 18.44 20.5 18.37 20.46 18.31 20.43 18.24 20.4 18.18 20.37 18.11 20.33 18.04 20.3 17.98 20.27 17.91 20.24 17.85 20.2 17.78 20.17 17.72 20.14 17.65 20.11 17.59 20.07 17.52 20.04 17.45 20.01 17.39 19.98 17.32 19.94 17.26 19.91 17.19 19.88 17.13 19.85 17.06 19.81 17 19.78 16.93 19.75 16.87 19.72 16.8 19.69 16.73 19.65 16.67 19.62 16.6 19.59 16.54 19.56 16.47 19.52 16.41 19.49 16.34 19.46 16.28 19.43 16.21 19.4 16.14 19.36 16.08 19.33 16.01 19.3 15.95 19.27 15.88 19.24 15.82 19.2 15.75 19.17 15.69 19.14 15.62 19.11 15.56 19.08 15.49 19.04 15.42 19.01 15.36 18.98 15.29 18.95 15.23 18.92 15.16 18.89 15.1 18.85 15.03 18.82 14.97 18.79 14.9 18.76 14.83 18.73 14.77 18.7 14.7 18.66 14.64 18.63 14.57 18.6 14.51 18.57 14.44 18.54 14.38 18.51 14.31 18.47 14.25 18.44 14.18 18.41 14.11 18.38 14.05 18.35 13.98 18.32 13.92 18.29 13.85 18.25 13.79 18.22 13.72 18.19 13.66 18.16 13.59 18.13 13.52 18.1 13.46 18.07 13.39 18.04 13.33 18 13.26 17.97 13.2 17.94 13.13 17.91 13.07 17.88 13 17.85 12.94 17.82 12.87 17.79 12.8 17.76 12.74 17.72 12.67 17.69 12.61 17.66 12.54 17.63 12.48 17.6 12.41 17.57 12.35 17.54 12.28 17.51 12.21 17.48 12.15 17.45 12.08 17.41 12.02 17.38 11.95 17.35 11.89 17.32 11.82 17.29 11.76 17.26 11.69 17.23 11.63 17.2 11.56 17.17 11.49 17.14 11.43 17.11 11.36 17.08 11.3 17.05 11.23 17.02 11.17 16.98 11.1 16.95 11.04 16.92 10.97 16.89 10.91 16.86 10.84 16.83 10.77 16.8 10.71 16.77 10.64 16.74 10.58 16.71 10.51 16.68 10.45 16.65 10.38 16.62 10.32 16.59 10.25 16.56 10.18 16.53 10.12 16.5 10.05 16.47 9.99 16.44 9.92 16.41 9.86 16.38 9.79 16.35 9.73 16.32 9.66 16.29 9.6 16.26 9.53 16.23 9.46 16.2 9.4 16.17 9.33 16.14 9.27 16.11 9.2 16.08 9.14 16.05 9.07 16.02 9.01 15.99 8.94 15.96 8.87 15.93 8.81 15.9 8.74 15.87 8.68 15.84 8.61 15.81 8.55 15.78 8.48 15.75 8.42 15.72 8.35 15.69 8.29 15.66 8.22 15.63 8.15 15.6 8.09 15.57 8.02 15.54 7.96 15.51 7.89 15.48 7.83 15.45 7.76 15.42 7.7 15.39 7.63 15.36 7.56 15.33 7.5 15.3 7.43 15.27 7.37 15.24 7.3 15.21 7.24 15.18 7.17 15.15 7.11 15.12 7.04 15.09 6.98 15.06 6.91 15.03 6.84 15.01 6.78 14.98 6.71 14.95 6.65 14.92 6.58 14.89 6.52 14.86 6.45 14.83 6.39 14.8 6.32 14.77 6.25 14.74 6.19 14.71 6.12 14.68 6.06 14.65 5.99 14.62 5.93 14.6 5.86 14.57 5.8 14.54 5.73 14.51 5.67 14.48 5.6 14.45 5.53 14.42 5.47 14.39 5.4 14.36 5.34 14.33 5.27 14.3 5.21 14.28 5.14 14.25 5.08 14.22 5.01 14.19 4.94 14.16 4.88 14.13 4.81 14.1 4.75 14.07 4.68 14.04 4.62 14.02 4.55 13.99 4.49 13.96 4.42 13.93 4.36 13.9 4.29 13.87 4.22 13.84 4.16 13.81 4.09 13.79 4.03 13.76 3.96 13.73 3.9 13.7 3.83 13.67 3.77 13.64 3.7 13.61 3.64 13.58 3.57 13.56 3.5 13.53 3.44 13.5 3.37 13.47 3.31 13.44 3.24 13.41 3.18 13.39 3.11 13.36 3.05 13.33 2.98 13.3 2.91 13.27 2.85 13.24 2.78 13.21 2.72 13.19 2.65 13.16 2.59 13.13 2.52 13.1 2.46 13.07 2.39 13.04 2.33 13.02 2.26 12.99 2.19 12.96 2.13 12.93 2.06 12.9 2 12.88 1.93 12.85 1.87 12.82 1.8 12.79 1.74 12.76 1.67 12.74 1.6 12.71 1.54 12.68 1.47 12.65 1.41 12.62 1.34 12.59 1.28 12.57 1.21 12.54 1.15 12.51 1.08 12.48 1.02 12.45 0.95 12.43 0.88 12.4 0.82 12.37 0.75 12.34 0.69 12.32 0.62 12.29 0.56 12.26 0.49 12.23 0.43 12.2 0.36 12.18 0.29 12.15 0.23 12.12 0.16 12.09 0.1 12.07 0.03 12.04 -0.03 12.01 -0.1 11.98 -0.16 11.95 -0.23 11.93 -0.29 11.9 -0.36 11.87 -0.43 11.84 -0.49 11.82 -0.56 11.79 -0.62 11.76 -0.69 11.73 -0.75 11.71 -0.82 11.68 -0.88 11.65 -0.95 11.62 -1.02 11.6 -1.08 11.57 -1.15 11.54 -1.21 11.51 -1.28 11.49 -1.34 11.46 -1.41 11.43 -1.47 11.41 -1.54 11.38 -1.6 11.35 -1.67 11.32 -1.74 11.3 -1.8 11.27 -1.87 11.24 -1.93 11.21 -2 11.19 -2.06 11.16 -2.13 11.13 -2.19 11.11 -2.26 11.08 -2.33 11.05 -2.39 11.02 -2.46 11 -2.52 10.97 -2.59 10.94 -2.65 10.92 -2.72 10.89 -2.78 10.86 -2.85 10.83 -2.91 10.81 -2.98 10.78 -3.05 10.75 -3.11 10.73 -3.18 10.7 -3.24 10.67 -3.31 10.65 -3.37 10.62 -3.44 10.59 -3.5 10.57 -3.57 10.54 -3.64 10.51 -3.7 10.49 -3.77 10.46 -3.83 10.43 -3.9 10.4 -3.96 10.38 -4.03 10.35 -4.09 10.32 -4.16 10.3 -4.22 10.27 -4.29 10.24 -4.36 10.22 -4.42 10.19 -4.49 10.16 -4.55 10.14 -4.62 10.11 -4.68 10.08 -4.75 10.06 -4.81 10.03 -4.88 10.01 -4.94 9.98 -5.01 9.95 -5.08 9.93 -5.14 9.9 -5.21 9.87 -5.27 9.85 -5.34 9.82 -5.4 9.79 -5.47 9.77 -5.53 9.74 -5.6 9.71 -5.67 9.69 -5.73 9.66 -5.8 9.64 -5.86 9.61 -5.93 9.58 -5.99 9.56 -6.06 9.53 -6.12 9.5 -6.19 9.48 -6.25 9.45 -6.32 9.42 -6.39 9.4 -6.45 9.37 -6.52 9.35 -6.58 9.32 -6.65 9.29 -6.71 9.27 -6.78 9.24 -6.84 9.22 -6.91 9.19 -6.98 9.16 -7.04 9.14 -7.11 9.11 -7.17 9.09 -7.24 9.06 -7.3 9.03 -7.37 9.01 -7.43 8.98 -7.5 8.96 -7.56 8.93 -7.63 8.9 -7.7 8.88 -7.76 8.85 -7.83 8.83 -7.89 8.8 -7.96 8.77 -8.02 8.75 -8.09 8.72 -8.15 8.7 -8.22 8.67 -8.29 8.65 -8.35 8.62 -8.42 8.59 -8.48 8.57 -8.55 8.54 -8.61 8.52 -8.68 8.49 -8.74 8.46 -8.81 8.44 -8.87 8.41 -8.94 8.39 -9.01 8.36 -9.07 8.34 -9.14 8.31 -9.2 8.29 -9.27 8.26 -9.33 8.23 -9.4 8.21 -9.46 8.18 -9.53 8.16 -9.6 8.13 -9.66 8.11 -9.73 8.08 -9.79 8.06 -9.86 8.03 -9.92 8 -9.99 7.98 -10.05 7.95 -10.12 7.93 -10.18 7.9 -10.25 7.88 -10.32 7.85 -10.38 7.83 -10.45 7.8 -10.51 7.78 -10.58 7.75 -10.64 7.73 -10.71 7.7 -10.77 7.68 -10.84 7.65 -10.91 7.63 -10.97 7.6 -11.04 7.57 -11.1 7.55 -11.17 7.52 -11.23 7.5 -11.3 7.47 -11.36 7.45 -11.43 7.42 -11.49 7.4 -11.56 7.37 -11.63 7.35 -11.69 7.32 -11.76 7.3 -11.82 7.27 -11.89 7.25 -11.95 7.22 -12.02 7.2 -12.08 7.17 -12.15 7.15 -12.21 7.12 -12.28 7.1 -12.35 7.07 -12.41 7.05 -12.48 7.02 -12.54 7 -12.61 6.97 -12.67 6.95 -12.74 6.92 -12.8 6.9 -12.87 6.87 -12.94 6.85 -13 6.83 -13.07 6.8 -13.13 6.78 -13.2 6.75 -13.26 6.73 -13.33 6.7 -13.39 6.68 -13.46 6.65 -13.52 6.63 -13.59 6.6 -13.66 6.58 -13.72 6.55 -13.79 6.53 -13.85 6.5 -13.92 6.48 -13.98 6.45 -14.05 6.43 -14.11 6.41 -14.18 6.38 -14.25 6.36 -14.31 6.33 -14.38 6.31 -14.44 6.28 -14.51 6.26 -14.57 6.23 -14.64 6.21 -14.7 6.19 -14.77 6.16 -14.83 6.14 -14.9 6.11 -14.97 6.09 -15.03 6.06 -15.1 6.04 -15.16 6.01 -15.23 5.99 -15.29 5.97 -15.36 5.94 -15.42 5.92 -15.49 5.89 -15.56 5.87 -15.62 5.84 -15.69 5.82 -15.75 5.8 -15.82 5.77 -15.88 5.75 -15.95 5.72 -16.01 5.7 -16.08 5.67 -16.14 5.65 -16.21 5.63 -16.28 5.6 -16.34 5.58 -16.41 5.55 -16.47 5.53 -16.54 5.51 -16.6 5.48 -16.67 5.46 -16.73 5.43 -16.8 5.41 -16.87 5.39 -16.93 5.36 -17 5.34 -17.06 5.31 -17.13 5.29 -17.19 5.27 -17.26 5.24 -17.32 5.22 -17.39 5.19 -17.45 5.17 -17.52 5.15 -17.59 5.12 -17.65 5.1 -17.72 5.07 -17.78 5.05 -17.85 5.03 -17.91 5 -17.98 4.98 -18.04 4.96 -18.11 4.93 -18.18 4.91 -18.24 4.88 -18.31 4.86 -18.37 4.84 -18.44 4.81 -18.5 4.79 -18.57 4.77 -18.63 4.74 -18.7 4.72 -18.76 4.69 -18.83 4.67 -18.9 4.65 -18.96 4.62 -19.03 4.6 -19.09 4.58 -19.16 4.55 -19.22 4.53 -19.29 4.51 -19.35 4.48 -19.42 4.46 -19.49 4.44 -19.55 4.41 -19.62 4.39 -19.68 4.36 -19.75 4.34 -19.81 4.32 -19.88 4.29 -19.94 4.27 -20.01 4.25 -20.07 4.22 -20.14 4.2 -20.21 4.18 -20.27 4.15 -20.34 4.13 -20.4 4.11 -20.47 4.08 -20.53 4.06 -20.6 4.04 -20.66 4.01 -20.73 3.99 -20.79 3.97 -20.86 3.94 -20.93 3.92 -20.99 3.9 -21.06 3.87 -21.12 3.85 -21.19 3.83 -21.25 3.81 -21.32 3.78 -21.38 3.76 -21.45 3.74 -21.52 3.71 -21.58 3.69 -21.65 3.67 -21.71 3.64 -21.78 3.62 -21.84 3.6 -21.91 3.57 -21.97 3.55 -22.04 3.53 -22.1 3.5 -22.17 3.48 -22.24 3.46 -22.3 3.44 -22.37 3.41 -22.43 3.39 -22.5 3.37 -22.56 3.34 -22.63 3.32 -22.69 3.3 -22.76 3.28 -22.83 3.25 -22.89 3.23 -22.96 3.21 -23.02 3.18 -23.09 3.16 -23.15 3.14 -23.22 3.12 -23.28 3.09 -23.35 3.07 -23.41 3.05 -23.48 3.02 -23.55 3 -23.61 2.98 -23.68 2.96 -23.74 2.93 -23.81 2.91 -23.87 2.89 -23.94 2.86 -24 2.84 -24.07 2.82 -24.14 2.8 -24.2 2.77 -24.27 2.75 -24.33 2.73 -24.4 2.71 -24.46 2.68 -24.53 2.66 -24.59 2.64 -24.66 2.62 -24.72 2.59 -24.79 2.57 -24.86 2.55 -24.92 2.53 -24.99 2.5 -25.05 2.48 -25.12 2.46 -25.18 2.44 -25.25 2.41 -25.31 2.39 -25.38 2.37 -25.45 2.35 -25.51 2.32 -25.58 2.3 -25.64 2.28 -25.71 2.26 -25.77 2.23 -25.84 2.21 -25.9 2.19 -25.97 2.17 -26.03 2.14 -26.1 2.12 -26.17 2.1 -26.23 2.08 -26.3 2.06 -26.36 2.03 -26.43 2.01 -26.49 1.99 -26.56 1.97 -26.62 1.94 -26.69 1.92 -26.76 1.9 -26.82 1.88 -26.89 1.86 -26.95 1.83 -27.02 1.81 -27.08 1.79 -27.15 1.77 -27.21 1.75 -27.28 1.72 -27.34 1.7 -27.41 1.68 -27.48 1.66 -27.54 1.63 -27.61 1.61 -27.67 1.59 -27.74 1.57 -27.8 1.55 -27.87 1.52 -27.93 1.5 -28 1.48 -28.06 1.46 -28.13 1.44 -28.2 1.41 -28.26 1.39 -28.33 1.37 -28.39 1.35 -28.46 1.33 -28.52 1.31 -28.59 1.28 -28.65 1.26 -28.72 1.24 -28.79 1.22 -28.85 1.2 -28.92 1.17 -28.98 1.15 -29.05 1.13 -29.11 1.11 -29.18 1.09 -29.24 1.06 -29.31 1.04 -29.37 1.02 -29.44 1 -29.51 0.98 -29.57 0.96 -29.64 0.93 -29.7 0.91 -29.77 0.89 -29.83 0.87 -29.9 0.85 -29.96 0.83 -30.03 0.8 -30.1 0.78 -30.16 0.76 -30.23 0.74 -30.29 0.72 -30.36 0.7 -30.42 0.67 -30.49 0.65 -30.55 0.63 -30.62 0.61 -30.68 0.59 -30.75 0.57 -30.82 0.55 -30.88 0.52 -30.95 0.5 -31.01 0.48 -31.08 0.46 -31.14 0.44 -31.21 0.42 -31.27 0.4 -31.34 0.37 -31.41 0.35 -31.47 0.33 -31.54 0.31 -31.6 0.29 -31.67 0.27 -31.73 0.25 -31.8 0.22 -31.86 0.2 -31.93 0.18 -31.99 0.16 -32.06 0.14 -32.13 0.12 -32.19 0.1 -32.26 0.08 -32.32 0.05 -32.39 0.03 -32.45 0.01 -32.52 -0.01 -32.58 -0.03 -32.58 -14.81 -32.52 -14.81 -32.45 -14.81 -32.39 -14.81 -32.32 -14.8 -32.26 -14.8 -32.19 -14.8 -32.13 -14.8 -32.06 -14.8 -31.99 -14.8 -31.93 -14.8 -31.86 -14.8 -31.8 -14.8 -31.73 -14.8 -31.67 -14.8 -31.6 -14.8 -31.54 -14.8 -31.47 -14.8 -31.41 -14.79 -31.34 -14.79 -31.27 -14.79 -31.21 -14.79 -31.14 -14.79 -31.08 -14.79 -31.01 -14.79 -30.95 -14.79 -30.88 -14.79 -30.82 -14.79 -30.75 -14.79 -30.68 -14.79 -30.62 -14.79 -30.55 -14.78 -30.49 -14.78 -30.42 -14.78 -30.36 -14.78 -30.29 -14.78 -30.23 -14.78 -30.16 -14.78 -30.1 -14.78 -30.03 -14.78 -29.96 -14.78 -29.9 -14.78 -29.83 -14.78 -29.77 -14.78 -29.7 -14.77 -29.64 -14.77 -29.57 -14.77 -29.51 -14.77 -29.44 -14.77 -29.37 -14.77 -29.31 -14.77 -29.24 -14.77 -29.18 -14.77 -29.11 -14.77 -29.05 -14.77 -28.98 -14.77 -28.92 -14.77 -28.85 -14.76 -28.79 -14.76 -28.72 -14.76 -28.65 -14.76 -28.59 -14.76 -28.52 -14.76 -28.46 -14.76 -28.39 -14.76 -28.33 -14.76 -28.26 -14.76 -28.2 -14.76 -28.13 -14.76 -28.06 -14.76 -28 -14.75 -27.93 -14.75 -27.87 -14.75 -27.8 -14.75 -27.74 -14.75 -27.67 -14.75 -27.61 -14.75 -27.54 -14.75 -27.48 -14.75 -27.41 -14.75 -27.34 -14.75 -27.28 -14.75 -27.21 -14.74 -27.15 -14.74 -27.08 -14.74 -27.02 -14.74 -26.95 -14.74 -26.89 -14.74 -26.82 -14.74 -26.76 -14.74 -26.69 -14.74 -26.62 -14.74 -26.56 -14.74 -26.49 -14.74 -26.43 -14.73 -26.36 -14.73 -26.3 -14.73 -26.23 -14.73 -26.17 -14.73 -26.1 -14.73 -26.03 -14.73 -25.97 -14.73 -25.9 -14.73 -25.84 -14.73 -25.77 -14.73 -25.71 -14.72 -25.64 -14.72 -25.58 -14.72 -25.51 -14.72 -25.45 -14.72 -25.38 -14.72 -25.31 -14.72 -25.25 -14.72 -25.18 -14.72 -25.12 -14.72 -25.05 -14.72 -24.99 -14.71 -24.92 -14.71 -24.86 -14.71 -24.79 -14.71 -24.72 -14.71 -24.66 -14.71 -24.59 -14.71 -24.53 -14.71 -24.46 -14.71 -24.4 -14.71 -24.33 -14.71 -24.27 -14.7 -24.2 -14.7 -24.14 -14.7 -24.07 -14.7 -24 -14.7 -23.94 -14.7 -23.87 -14.7 -23.81 -14.7 -23.74 -14.7 -23.68 -14.7 -23.61 -14.7 -23.55 -14.69 -23.48 -14.69 -23.41 -14.69 -23.35 -14.69 -23.28 -14.69 -23.22 -14.69 -23.15 -14.69 -23.09 -14.69 -23.02 -14.69 -22.96 -14.69 -22.89 -14.69 -22.83 -14.68 -22.76 -14.68 -22.69 -14.68 -22.63 -14.68 -22.56 -14.68 -22.5 -14.68 -22.43 -14.68 -22.37 -14.68 -22.3 -14.68 -22.24 -14.68 -22.17 -14.67 -22.1 -14.67 -22.04 -14.67 -21.97 -14.67 -21.91 -14.67 -21.84 -14.67 -21.78 -14.67 -21.71 -14.67 -21.65 -14.67 -21.58 -14.67 -21.52 -14.66 -21.45 -14.66 -21.38 -14.66 -21.32 -14.66 -21.25 -14.66 -21.19 -14.66 -21.12 -14.66 -21.06 -14.66 -20.99 -14.66 -20.93 -14.65 -20.86 -14.65 -20.79 -14.65 -20.73 -14.65 -20.66 -14.65 -20.6 -14.65 -20.53 -14.65 -20.47 -14.65 -20.4 -14.65 -20.34 -14.65 -20.27 -14.64 -20.21 -14.64 -20.14 -14.64 -20.07 -14.64 -20.01 -14.64 -19.94 -14.64 -19.88 -14.64 -19.81 -14.64 -19.75 -14.64 -19.68 -14.63 -19.62 -14.63 -19.55 -14.63 -19.49 -14.63 -19.42 -14.63 -19.35 -14.63 -19.29 -14.63 -19.22 -14.63 -19.16 -14.63 -19.09 -14.62 -19.03 -14.62 -18.96 -14.62 -18.9 -14.62 -18.83 -14.62 -18.76 -14.62 -18.7 -14.62 -18.63 -14.62 -18.57 -14.62 -18.5 -14.61 -18.44 -14.61 -18.37 -14.61 -18.31 -14.61 -18.24 -14.61 -18.18 -14.61 -18.11 -14.61 -18.04 -14.61 -17.98 -14.61 -17.91 -14.6 -17.85 -14.6 -17.78 -14.6 -17.72 -14.6 -17.65 -14.6 -17.59 -14.6 -17.52 -14.6 -17.45 -14.6 -17.39 -14.59 -17.32 -14.59 -17.26 -14.59 -17.19 -14.59 -17.13 -14.59 -17.06 -14.59 -17 -14.59 -16.93 -14.59 -16.87 -14.59 -16.8 -14.58 -16.73 -14.58 -16.67 -14.58 -16.6 -14.58 -16.54 -14.58 -16.47 -14.58 -16.41 -14.58 -16.34 -14.58 -16.28 -14.57 -16.21 -14.57 -16.14 -14.57 -16.08 -14.57 -16.01 -14.57 -15.95 -14.57 -15.88 -14.57 -15.82 -14.57 -15.75 -14.56 -15.69 -14.56 -15.62 -14.56 -15.56 -14.56 -15.49 -14.56 -15.42 -14.56 -15.36 -14.56 -15.29 -14.56 -15.23 -14.55 -15.16 -14.55 -15.1 -14.55 -15.03 -14.55 -14.97 -14.55 -14.9 -14.55 -14.83 -14.55 -14.77 -14.54 -14.7 -14.54 -14.64 -14.54 -14.57 -14.54 -14.51 -14.54 -14.44 -14.54 -14.38 -14.54 -14.31 -14.54 -14.25 -14.53 -14.18 -14.53 -14.11 -14.53 -14.05 -14.53 -13.98 -14.53 -13.92 -14.53 -13.85 -14.53 -13.79 -14.52 -13.72 -14.52 -13.66 -14.52 -13.59 -14.52 -13.52 -14.52 -13.46 -14.52 -13.39 -14.52 -13.33 -14.52 -13.26 -14.51 -13.2 -14.51 -13.13 -14.51 -13.07 -14.51 -13 -14.51 -12.94 -14.51 -12.87 -14.51 -12.8 -14.5 -12.74 -14.5 -12.67 -14.5 -12.61 -14.5 -12.54 -14.5 -12.48 -14.5 -12.41 -14.5 -12.35 -14.49 -12.28 -14.49 -12.21 -14.49 -12.15 -14.49 -12.08 -14.49 -12.02 -14.49 -11.95 -14.48 -11.89 -14.48 -11.82 -14.48 -11.76 -14.48 -11.69 -14.48 -11.63 -14.48 -11.56 -14.48 -11.49 -14.47 -11.43 -14.47 -11.36 -14.47 -11.3 -14.47 -11.23 -14.47 -11.17 -14.47 -11.1 -14.47 -11.04 -14.46 -10.97 -14.46 -10.91 -14.46 -10.84 -14.46 -10.77 -14.46 -10.71 -14.46 -10.64 -14.45 -10.58 -14.45 -10.51 -14.45 -10.45 -14.45 -10.38 -14.45 -10.32 -14.45 -10.25 -14.44 -10.18 -14.44 -10.12 -14.44 -10.05 -14.44 -9.99 -14.44 -9.92 -14.44 -9.86 -14.44 -9.79 -14.43 -9.73 -14.43 -9.66 -14.43 -9.6 -14.43 -9.53 -14.43 -9.46 -14.43 -9.4 -14.42 -9.33 -14.42 -9.27 -14.42 -9.2 -14.42 -9.14 -14.42 -9.07 -14.42 -9.01 -14.41 -8.94 -14.41 -8.87 -14.41 -8.81 -14.41 -8.74 -14.41 -8.68 -14.4 -8.61 -14.4 -8.55 -14.4 -8.48 -14.4 -8.42 -14.4 -8.35 -14.4 -8.29 -14.39 -8.22 -14.39 -8.15 -14.39 -8.09 -14.39 -8.02 -14.39 -7.96 -14.39 -7.89 -14.38 -7.83 -14.38 -7.76 -14.38 -7.7 -14.38 -7.63 -14.38 -7.56 -14.37 -7.5 -14.37 -7.43 -14.37 -7.37 -14.37 -7.3 -14.37 -7.24 -14.37 -7.17 -14.36 -7.11 -14.36 -7.04 -14.36 -6.98 -14.36 -6.91 -14.36 -6.84 -14.35 -6.78 -14.35 -6.71 -14.35 -6.65 -14.35 -6.58 -14.35 -6.52 -14.35 -6.45 -14.34 -6.39 -14.34 -6.32 -14.34 -6.25 -14.34 -6.19 -14.34 -6.12 -14.33 -6.06 -14.33 -5.99 -14.33 -5.93 -14.33 -5.86 -14.33 -5.8 -14.32 -5.73 -14.32 -5.67 -14.32 -5.6 -14.32 -5.53 -14.32 -5.47 -14.31 -5.4 -14.31 -5.34 -14.31 -5.27 -14.31 -5.21 -14.31 -5.14 -14.3 -5.08 -14.3 -5.01 -14.3 -4.94 -14.3 -4.88 -14.3 -4.81 -14.29 -4.75 -14.29 -4.68 -14.29 -4.62 -14.29 -4.55 -14.28 -4.49 -14.28 -4.42 -14.28 -4.36 -14.28 -4.29 -14.28 -4.22 -14.27 -4.16 -14.27 -4.09 -14.27 -4.03 -14.27 -3.96 -14.27 -3.9 -14.26 -3.83 -14.26 -3.77 -14.26 -3.7 -14.26 -3.64 -14.25 -3.57 -14.25 -3.5 -14.25 -3.44 -14.25 -3.37 -14.25 -3.31 -14.24 -3.24 -14.24 -3.18 -14.24 -3.11 -14.24 -3.05 -14.23 -2.98 -14.23 -2.91 -14.23 -2.85 -14.23 -2.78 -14.23 -2.72 -14.22 -2.65 -14.22 -2.59 -14.22 -2.52 -14.22 -2.46 -14.21 -2.39 -14.21 -2.33 -14.21 -2.26 -14.21 -2.19 -14.2 -2.13 -14.2 -2.06 -14.2 -2 -14.2 -1.93 -14.19 -1.87 -14.19 -1.8 -14.19 -1.74 -14.19 -1.67 -14.18 -1.6 -14.18 -1.54 -14.18 -1.47 -14.18 -1.41 -14.17 -1.34 -14.17 -1.28 -14.17 -1.21 -14.17 -1.15 -14.16 -1.08 -14.16 -1.02 -14.16 -0.95 -14.16 -0.88 -14.15 -0.82 -14.15 -0.75 -14.15 -0.69 -14.15 -0.62 -14.14 -0.56 -14.14 -0.49 -14.14 -0.43 -14.14 -0.36 -14.13 -0.29 -14.13 -0.23 -14.13 -0.16 -14.13 -0.1 -14.12 -0.03 -14.12 0.03 -14.12 0.1 -14.11 0.16 -14.11 0.23 -14.11 0.29 -14.11 0.36 -14.1 0.43 -14.1 0.49 -14.1 0.56 -14.1 0.62 -14.09 0.69 -14.09 0.75 -14.09 0.82 -14.08 0.88 -14.08 0.95 -14.08 1.02 -14.08 1.08 -14.07 1.15 -14.07 1.21 -14.07 1.28 -14.06 1.34 -14.06 1.41 -14.06 1.47 -14.06 1.54 -14.05 1.6 -14.05 1.67 -14.05 1.74 -14.04 1.8 -14.04 1.87 -14.04 1.93 -14.03 2 -14.03 2.06 -14.03 2.13 -14.02 2.19 -14.02 2.26 -14.02 2.33 -14.02 2.39 -14.01 2.46 -14.01 2.52 -14.01 2.59 -14 2.65 -14 2.72 -14 2.78 -13.99 2.85 -13.99 2.91 -13.99 2.98 -13.98 3.05 -13.98 3.11 -13.98 3.18 -13.97 3.24 -13.97 3.31 -13.97 3.37 -13.96 3.44 -13.96 3.5 -13.96 3.57 -13.95 3.64 -13.95 3.7 -13.95 3.77 -13.94 3.83 -13.94 3.9 -13.94 3.96 -13.93 4.03 -13.93 4.09 -13.93 4.16 -13.92 4.22 -13.92 4.29 -13.92 4.36 -13.91 4.42 -13.91 4.49 -13.9 4.55 -13.9 4.62 -13.9 4.68 -13.89 4.75 -13.89 4.81 -13.89 4.88 -13.88 4.94 -13.88 5.01 -13.88 5.08 -13.87 5.14 -13.87 5.21 -13.86 5.27 -13.86 5.34 -13.86 5.4 -13.85 5.47 -13.85 5.53 -13.85 5.6 -13.84 5.67 -13.84 5.73 -13.83 5.8 -13.83 5.86 -13.83 5.93 -13.82 5.99 -13.82 6.06 -13.81 6.12 -13.81 6.19 -13.81 6.25 -13.8 6.32 -13.8 6.39 -13.79 6.45 -13.79 6.52 -13.79 6.58 -13.78 6.65 -13.78 6.71 -13.77 6.78 -13.77 6.84 -13.76 6.91 -13.76 6.98 -13.76 7.04 -13.75 7.11 -13.75 7.17 -13.74 7.24 -13.74 7.3 -13.73 7.37 -13.73 7.43 -13.73 7.5 -13.72 7.56 -13.72 7.63 -13.71 7.7 -13.71 7.76 -13.7 7.83 -13.7 7.89 -13.69 7.96 -13.69 8.02 -13.68 8.09 -13.68 8.15 -13.67 8.22 -13.67 8.29 -13.67 8.35 -13.66 8.42 -13.66 8.48 -13.65 8.55 -13.65 8.61 -13.64 8.68 -13.64 8.74 -13.63 8.81 -13.63 8.87 -13.62 8.94 -13.62 9.01 -13.61 9.07 -13.61 9.14 -13.6 9.2 -13.6 9.27 -13.59 9.33 -13.59 9.4 -13.58 9.46 -13.58 9.53 -13.57 9.6 -13.57 9.66 -13.56 9.73 -13.56 9.79 -13.55 9.86 -13.54 9.92 -13.54 9.99 -13.53 10.05 -13.53 10.12 -13.52 10.18 -13.52 10.25 -13.51 10.32 -13.51 10.38 -13.5 10.45 -13.49 10.51 -13.49 10.58 -13.48 10.64 -13.48 10.71 -13.47 10.77 -13.47 10.84 -13.46 10.91 -13.45 10.97 -13.45 11.04 -13.44 11.1 -13.44 11.17 -13.43 11.23 -13.42 11.3 -13.42 11.36 -13.41 11.43 -13.41 11.49 -13.4 11.56 -13.39 11.63 -13.39 11.69 -13.38 11.76 -13.38 11.82 -13.37 11.89 -13.36 11.95 -13.36 12.02 -13.35 12.08 -13.34 12.15 -13.34 12.21 -13.33 12.28 -13.32 12.35 -13.32 12.41 -13.31 12.48 -13.3 12.54 -13.3 12.61 -13.29 12.67 -13.28 12.74 -13.28 12.8 -13.27 12.87 -13.26 12.94 -13.25 13 -13.25 13.07 -13.24 13.13 -13.23 13.2 -13.23 13.26 -13.22 13.33 -13.21 13.39 -13.2 13.46 -13.2 13.52 -13.19 13.59 -13.18 13.66 -13.17 13.72 -13.17 13.79 -13.16 13.85 -13.15 13.92 -13.14 13.98 -13.14 14.05 -13.13 14.11 -13.12 14.18 -13.11 14.25 -13.1 14.31 -13.1 14.38 -13.09 14.44 -13.08 14.51 -13.07 14.57 -13.06 14.64 -13.06 14.7 -13.05 14.77 -13.04 14.83 -13.03 14.9 -13.02 14.97 -13.01 15.03 -13 15.1 -13 15.16 -12.99 15.23 -12.98 15.29 -12.97 15.36 -12.96 15.42 -12.95 15.49 -12.94 15.56 -12.93 15.62 -12.92 15.69 -12.91 15.75 -12.9 15.82 -12.9 15.88 -12.89 15.95 -12.88 16.01 -12.87 16.08 -12.86 16.14 -12.85 16.21 -12.84 16.28 -12.83 16.34 -12.82 16.41 -12.81 16.47 -12.8 16.54 -12.79 16.6 -12.78 16.67 -12.77 16.73 -12.76 16.8 -12.74 16.87 -12.73 16.93 -12.72 17 -12.71 17.06 -12.7 17.13 -12.69 17.19 -12.68 17.26 -12.67 17.32 -12.66 17.39 -12.65 17.45 -12.63 17.52 -12.62 17.59 -12.61 17.65 -12.6 17.72 -12.59 17.78 -12.58 17.85 -12.56 17.91 -12.55 17.98 -12.54 18.04 -12.53 18.11 -12.52 18.18 -12.5 18.24 -12.49 18.31 -12.48 18.37 -12.47 18.44 -12.45 18.5 -12.44 18.57 -12.43 18.63 -12.41 18.7 -12.4 18.76 -12.39 18.83 -12.37 18.9 -12.36 18.96 -12.35 19.03 -12.33 19.09 -12.32 19.16 -12.3 19.22 -12.29 19.29 -12.27 19.35 -12.26 19.42 -12.25 19.49 -12.23 19.55 -12.22 19.62 -12.2 19.68 -12.19 19.75 -12.17 19.81 -12.15 19.88 -12.14 19.94 -12.12 20.01 -12.11 20.07 -12.09 20.14 -12.07 20.21 -12.06 20.27 -12.04 20.34 -12.03 20.4 -12.01 20.47 -11.99 20.53 -11.97 20.6 -11.96 20.66 -11.94 20.73 -11.92 20.79 -11.9 20.86 -11.89 20.93 -11.87 20.99 -11.85 21.06 -11.83 21.12 -11.81 21.19 -11.79 21.25 -11.77 21.32 -11.75 21.38 -11.73 21.45 -11.71 21.52 -11.69 21.58 -11.67 21.65 -11.65 21.71 -11.63 21.78 -11.61 21.84 -11.59 21.91 -11.57 21.97 -11.55 22.04 -11.53 22.1 -11.5 22.17 -11.48 22.24 -11.46 22.3 -11.44 22.37 -11.41 22.43 -11.39 22.5 -11.37 22.56 -11.34 22.63 -11.32 22.69 -11.3 22.76 -11.27 22.83 -11.25 22.89 -11.22 22.96 -11.2 23.02 -11.17 23.09 -11.14 23.15 -11.12 23.22 -11.09 23.28 -11.06 23.35 -11.04 23.41 -11.01 23.48 -10.98 23.55 -10.95 23.61 -10.92 23.68 -10.89 23.74 -10.86 23.81 -10.83 23.87 -10.8 23.94 -10.77 24 -10.74 24.07 -10.71 24.14 -10.68 24.2 -10.65 24.27 -10.61 24.33 -10.58 24.4 -10.55 24.46 -10.51 24.53 -10.48 24.59 -10.44 24.66 -10.41 24.72 -10.37 24.79 -10.33 24.86 -10.3 24.92 -10.26 24.99 -10.22 25.05 -10.18 25.12 -10.14 25.18 -10.1 25.25 -10.06 25.31 -10.02 25.38 -9.98 25.45 -9.94 25.51 -9.89 25.58 -9.85 25.64 -9.8 25.71 -9.76 25.77 -9.71 25.84 -9.67 25.9 -9.62 25.97 -9.57 26.03 -9.52 26.1 -9.47 26.17 -9.42 26.23 -9.37 26.3 -9.32 26.36 -9.26 26.43 -9.21 26.49 -9.16 26.56 -9.1 26.62 -9.04 26.69 -8.98 26.76 -8.93 26.82 -8.87 26.89 -8.8 26.95 -8.74 27.02 -8.68 27.08 -8.61 27.15 -8.55 27.21 -8.48 27.28 -8.41 27.34 -8.34 27.41 -8.27 27.48 -8.2 27.54 -8.12 27.61 -8.05 27.67 -7.97 27.74 -7.89 27.8 -7.81 27.87 -7.73 27.93 -7.64 28 -7.56 28.06 -7.47 28.13 -7.38 28.2 -7.29 28.26 -7.19 28.33 -7.1 28.39 -7 28.46 -6.9 28.52 -6.8 28.59 -6.69 28.65 -6.58 28.72 -6.47 28.79 -6.36 28.85 -6.24 28.92 -6.12 28.98 -6 29.05 -5.87 29.11 -5.74 29.18 -5.61 29.24 -5.47 29.31 -5.33 29.37 -5.19 29.44 -5.04 29.51 -4.89 29.57 -4.73 29.64 -4.57 29.7 -4.4 29.77 -4.23 29.83 -4.05 29.9 -3.87 29.96 -3.68 30.03 -3.49 30.1 -3.29 30.16 -3.08 30.23 -2.86 30.29 -2.64 30.36 -2.41 30.42 -2.17 30.49 -1.92 30.55 -1.66 30.62 -1.39 30.68 -1.11 30.75 -0.82 30.82 -0.52 30.88 -0.2 30.95 0.12 31.01 0.47 31.08 0.82 31.14 1.2 31.21 1.59 31.27 2 31.34 2.43 31.41 2.88 31.47 3.36 31.54 3.86 31.6 4.39 31.67 4.95 31.73 5.54 31.8 6.16 31.86 6.83 31.93 7.53 31.99 8.28 32.06 9.09 32.13 9.94 32.19 10.86 32.26 11.85 32.32 12.92 32.39 14.07 32.45 15.32 32.52 16.68 32.58 18.17 z" class="primitive"/>
          </g>
        </g>
        <g stroke-width="0.53" fill="#000000" fill-opacity="0.000" class="geometry" id="img-56e88ff9-327">
          <g class="color_RGB{N0f8}(0.0,0.0,0.0)" stroke-dasharray="none" stroke="#000000" id="img-56e88ff9-328">
            <g transform="translate(49.35,36.79)" id="img-56e88ff9-329">
              <path fill="none" d="M-32.58,-10.31 L -32.52 -10.3 -32.45 -10.29 -32.39 -10.28 -32.32 -10.27 -32.26 -10.26 -32.19 -10.25 -32.13 -10.24 -32.06 -10.23 -31.99 -10.22 -31.93 -10.21 -31.86 -10.2 -31.8 -10.19 -31.73 -10.18 -31.67 -10.17 -31.6 -10.16 -31.54 -10.15 -31.47 -10.14 -31.41 -10.13 -31.34 -10.12 -31.27 -10.11 -31.21 -10.1 -31.14 -10.09 -31.08 -10.08 -31.01 -10.07 -30.95 -10.06 -30.88 -10.05 -30.82 -10.04 -30.75 -10.03 -30.68 -10.02 -30.62 -10.01 -30.55 -10 -30.49 -9.99 -30.42 -9.98 -30.36 -9.97 -30.29 -9.96 -30.23 -9.95 -30.16 -9.94 -30.1 -9.93 -30.03 -9.92 -29.96 -9.91 -29.9 -9.9 -29.83 -9.88 -29.77 -9.87 -29.7 -9.86 -29.64 -9.85 -29.57 -9.84 -29.51 -9.83 -29.44 -9.82 -29.37 -9.81 -29.31 -9.8 -29.24 -9.79 -29.18 -9.78 -29.11 -9.77 -29.05 -9.76 -28.98 -9.75 -28.92 -9.74 -28.85 -9.73 -28.79 -9.72 -28.72 -9.7 -28.65 -9.69 -28.59 -9.68 -28.52 -9.67 -28.46 -9.66 -28.39 -9.65 -28.33 -9.64 -28.26 -9.63 -28.2 -9.62 -28.13 -9.61 -28.06 -9.6 -28 -9.59 -27.93 -9.57 -27.87 -9.56 -27.8 -9.55 -27.74 -9.54 -27.67 -9.53 -27.61 -9.52 -27.54 -9.51 -27.48 -9.5 -27.41 -9.49 -27.34 -9.48 -27.28 -9.46 -27.21 -9.45 -27.15 -9.44 -27.08 -9.43 -27.02 -9.42 -26.95 -9.41 -26.89 -9.4 -26.82 -9.39 -26.76 -9.38 -26.69 -9.36 -26.62 -9.35 -26.56 -9.34 -26.49 -9.33 -26.43 -9.32 -26.36 -9.31 -26.3 -9.3 -26.23 -9.29 -26.17 -9.27 -26.1 -9.26 -26.03 -9.25 -25.97 -9.24 -25.9 -9.23 -25.84 -9.22 -25.77 -9.21 -25.71 -9.19 -25.64 -9.18 -25.58 -9.17 -25.51 -9.16 -25.45 -9.15 -25.38 -9.14 -25.31 -9.12 -25.25 -9.11 -25.18 -9.1 -25.12 -9.09 -25.05 -9.08 -24.99 -9.07 -24.92 -9.05 -24.86 -9.04 -24.79 -9.03 -24.72 -9.02 -24.66 -9.01 -24.59 -9 -24.53 -8.98 -24.46 -8.97 -24.4 -8.96 -24.33 -8.95 -24.27 -8.94 -24.2 -8.92 -24.14 -8.91 -24.07 -8.9 -24 -8.89 -23.94 -8.88 -23.87 -8.86 -23.81 -8.85 -23.74 -8.84 -23.68 -8.83 -23.61 -8.82 -23.55 -8.8 -23.48 -8.79 -23.41 -8.78 -23.35 -8.77 -23.28 -8.76 -23.22 -8.74 -23.15 -8.73 -23.09 -8.72 -23.02 -8.71 -22.96 -8.69 -22.89 -8.68 -22.83 -8.67 -22.76 -8.66 -22.69 -8.64 -22.63 -8.63 -22.56 -8.62 -22.5 -8.61 -22.43 -8.6 -22.37 -8.58 -22.3 -8.57 -22.24 -8.56 -22.17 -8.55 -22.1 -8.53 -22.04 -8.52 -21.97 -8.51 -21.91 -8.49 -21.84 -8.48 -21.78 -8.47 -21.71 -8.46 -21.65 -8.44 -21.58 -8.43 -21.52 -8.42 -21.45 -8.41 -21.38 -8.39 -21.32 -8.38 -21.25 -8.37 -21.19 -8.35 -21.12 -8.34 -21.06 -8.33 -20.99 -8.32 -20.93 -8.3 -20.86 -8.29 -20.79 -8.28 -20.73 -8.26 -20.66 -8.25 -20.6 -8.24 -20.53 -8.23 -20.47 -8.21 -20.4 -8.2 -20.34 -8.19 -20.27 -8.17 -20.21 -8.16 -20.14 -8.15 -20.07 -8.13 -20.01 -8.12 -19.94 -8.11 -19.88 -8.09 -19.81 -8.08 -19.75 -8.07 -19.68 -8.05 -19.62 -8.04 -19.55 -8.03 -19.49 -8.01 -19.42 -8 -19.35 -7.99 -19.29 -7.97 -19.22 -7.96 -19.16 -7.95 -19.09 -7.93 -19.03 -7.92 -18.96 -7.91 -18.9 -7.89 -18.83 -7.88 -18.76 -7.86 -18.7 -7.85 -18.63 -7.84 -18.57 -7.82 -18.5 -7.81 -18.44 -7.8 -18.37 -7.78 -18.31 -7.77 -18.24 -7.75 -18.18 -7.74 -18.11 -7.73 -18.04 -7.71 -17.98 -7.7 -17.91 -7.69 -17.85 -7.67 -17.78 -7.66 -17.72 -7.64 -17.65 -7.63 -17.59 -7.62 -17.52 -7.6 -17.45 -7.59 -17.39 -7.57 -17.32 -7.56 -17.26 -7.54 -17.19 -7.53 -17.13 -7.52 -17.06 -7.5 -17 -7.49 -16.93 -7.47 -16.87 -7.46 -16.8 -7.44 -16.73 -7.43 -16.67 -7.42 -16.6 -7.4 -16.54 -7.39 -16.47 -7.37 -16.41 -7.36 -16.34 -7.34 -16.28 -7.33 -16.21 -7.31 -16.14 -7.3 -16.08 -7.28 -16.01 -7.27 -15.95 -7.26 -15.88 -7.24 -15.82 -7.23 -15.75 -7.21 -15.69 -7.2 -15.62 -7.18 -15.56 -7.17 -15.49 -7.15 -15.42 -7.14 -15.36 -7.12 -15.29 -7.11 -15.23 -7.09 -15.16 -7.08 -15.1 -7.06 -15.03 -7.05 -14.97 -7.03 -14.9 -7.02 -14.83 -7 -14.77 -6.99 -14.7 -6.97 -14.64 -6.96 -14.57 -6.94 -14.51 -6.93 -14.44 -6.91 -14.38 -6.89 -14.31 -6.88 -14.25 -6.86 -14.18 -6.85 -14.11 -6.83 -14.05 -6.82 -13.98 -6.8 -13.92 -6.79 -13.85 -6.77 -13.79 -6.76 -13.72 -6.74 -13.66 -6.72 -13.59 -6.71 -13.52 -6.69 -13.46 -6.68 -13.39 -6.66 -13.33 -6.65 -13.26 -6.63 -13.2 -6.61 -13.13 -6.6 -13.07 -6.58 -13 -6.57 -12.94 -6.55 -12.87 -6.53 -12.8 -6.52 -12.74 -6.5 -12.67 -6.49 -12.61 -6.47 -12.54 -6.45 -12.48 -6.44 -12.41 -6.42 -12.35 -6.41 -12.28 -6.39 -12.21 -6.37 -12.15 -6.36 -12.08 -6.34 -12.02 -6.32 -11.95 -6.31 -11.89 -6.29 -11.82 -6.27 -11.76 -6.26 -11.69 -6.24 -11.63 -6.23 -11.56 -6.21 -11.49 -6.19 -11.43 -6.18 -11.36 -6.16 -11.3 -6.14 -11.23 -6.13 -11.17 -6.11 -11.1 -6.09 -11.04 -6.07 -10.97 -6.06 -10.91 -6.04 -10.84 -6.02 -10.77 -6.01 -10.71 -5.99 -10.64 -5.97 -10.58 -5.96 -10.51 -5.94 -10.45 -5.92 -10.38 -5.9 -10.32 -5.89 -10.25 -5.87 -10.18 -5.85 -10.12 -5.84 -10.05 -5.82 -9.99 -5.8 -9.92 -5.78 -9.86 -5.77 -9.79 -5.75 -9.73 -5.73 -9.66 -5.71 -9.6 -5.7 -9.53 -5.68 -9.46 -5.66 -9.4 -5.64 -9.33 -5.63 -9.27 -5.61 -9.2 -5.59 -9.14 -5.57 -9.07 -5.56 -9.01 -5.54 -8.94 -5.52 -8.87 -5.5 -8.81 -5.48 -8.74 -5.47 -8.68 -5.45 -8.61 -5.43 -8.55 -5.41 -8.48 -5.39 -8.42 -5.37 -8.35 -5.36 -8.29 -5.34 -8.22 -5.32 -8.15 -5.3 -8.09 -5.28 -8.02 -5.27 -7.96 -5.25 -7.89 -5.23 -7.83 -5.21 -7.76 -5.19 -7.7 -5.17 -7.63 -5.15 -7.56 -5.14 -7.5 -5.12 -7.43 -5.1 -7.37 -5.08 -7.3 -5.06 -7.24 -5.04 -7.17 -5.02 -7.11 -5 -7.04 -4.99 -6.98 -4.97 -6.91 -4.95 -6.84 -4.93 -6.78 -4.91 -6.71 -4.89 -6.65 -4.87 -6.58 -4.85 -6.52 -4.83 -6.45 -4.81 -6.39 -4.79 -6.32 -4.77 -6.25 -4.76 -6.19 -4.74 -6.12 -4.72 -6.06 -4.7 -5.99 -4.68 -5.93 -4.66 -5.86 -4.64 -5.8 -4.62 -5.73 -4.6 -5.67 -4.58 -5.6 -4.56 -5.53 -4.54 -5.47 -4.52 -5.4 -4.5 -5.34 -4.48 -5.27 -4.46 -5.21 -4.44 -5.14 -4.42 -5.08 -4.4 -5.01 -4.38 -4.94 -4.36 -4.88 -4.34 -4.81 -4.32 -4.75 -4.3 -4.68 -4.28 -4.62 -4.26 -4.55 -4.24 -4.49 -4.22 -4.42 -4.2 -4.36 -4.18 -4.29 -4.15 -4.22 -4.13 -4.16 -4.11 -4.09 -4.09 -4.03 -4.07 -3.96 -4.05 -3.9 -4.03 -3.83 -4.01 -3.77 -3.99 -3.7 -3.97 -3.64 -3.95 -3.57 -3.92 -3.5 -3.9 -3.44 -3.88 -3.37 -3.86 -3.31 -3.84 -3.24 -3.82 -3.18 -3.8 -3.11 -3.78 -3.05 -3.75 -2.98 -3.73 -2.91 -3.71 -2.85 -3.69 -2.78 -3.67 -2.72 -3.65 -2.65 -3.62 -2.59 -3.6 -2.52 -3.58 -2.46 -3.56 -2.39 -3.54 -2.33 -3.52 -2.26 -3.49 -2.19 -3.47 -2.13 -3.45 -2.06 -3.43 -2 -3.41 -1.93 -3.38 -1.87 -3.36 -1.8 -3.34 -1.74 -3.32 -1.67 -3.29 -1.6 -3.27 -1.54 -3.25 -1.47 -3.23 -1.41 -3.2 -1.34 -3.18 -1.28 -3.16 -1.21 -3.14 -1.15 -3.11 -1.08 -3.09 -1.02 -3.07 -0.95 -3.04 -0.88 -3.02 -0.82 -3 -0.75 -2.97 -0.69 -2.95 -0.62 -2.93 -0.56 -2.9 -0.49 -2.88 -0.43 -2.86 -0.36 -2.83 -0.29 -2.81 -0.23 -2.79 -0.16 -2.76 -0.1 -2.74 -0.03 -2.72 0.03 -2.69 0.1 -2.67 0.16 -2.64 0.23 -2.62 0.29 -2.6 0.36 -2.57 0.43 -2.55 0.49 -2.52 0.56 -2.5 0.62 -2.48 0.69 -2.45 0.75 -2.43 0.82 -2.4 0.88 -2.38 0.95 -2.35 1.02 -2.33 1.08 -2.31 1.15 -2.28 1.21 -2.26 1.28 -2.23 1.34 -2.21 1.41 -2.18 1.47 -2.16 1.54 -2.13 1.6 -2.11 1.67 -2.08 1.74 -2.06 1.8 -2.03 1.87 -2.01 1.93 -1.98 2 -1.95 2.06 -1.93 2.13 -1.9 2.19 -1.88 2.26 -1.85 2.33 -1.83 2.39 -1.8 2.46 -1.77 2.52 -1.75 2.59 -1.72 2.65 -1.7 2.72 -1.67 2.78 -1.64 2.85 -1.62 2.91 -1.59 2.98 -1.57 3.05 -1.54 3.11 -1.51 3.18 -1.49 3.24 -1.46 3.31 -1.43 3.37 -1.41 3.44 -1.38 3.5 -1.35 3.57 -1.33 3.64 -1.3 3.7 -1.27 3.77 -1.25 3.83 -1.22 3.9 -1.19 3.96 -1.16 4.03 -1.14 4.09 -1.11 4.16 -1.08 4.22 -1.05 4.29 -1.03 4.36 -1 4.42 -0.97 4.49 -0.94 4.55 -0.92 4.62 -0.89 4.68 -0.86 4.75 -0.83 4.81 -0.8 4.88 -0.77 4.94 -0.75 5.01 -0.72 5.08 -0.69 5.14 -0.66 5.21 -0.63 5.27 -0.6 5.34 -0.58 5.4 -0.55 5.47 -0.52 5.53 -0.49 5.6 -0.46 5.67 -0.43 5.73 -0.4 5.8 -0.37 5.86 -0.34 5.93 -0.31 5.99 -0.28 6.06 -0.26 6.12 -0.23 6.19 -0.2 6.25 -0.17 6.32 -0.14 6.39 -0.11 6.45 -0.08 6.52 -0.05 6.58 -0.02 6.65 0.01 6.71 0.04 6.78 0.07 6.84 0.1 6.91 0.13 6.98 0.17 7.04 0.2 7.11 0.23 7.17 0.26 7.24 0.29 7.3 0.32 7.37 0.35 7.43 0.38 7.5 0.41 7.56 0.44 7.63 0.48 7.7 0.51 7.76 0.54 7.83 0.57 7.89 0.6 7.96 0.63 8.02 0.66 8.09 0.7 8.15 0.73 8.22 0.76 8.29 0.79 8.35 0.82 8.42 0.86 8.48 0.89 8.55 0.92 8.61 0.95 8.68 0.99 8.74 1.02 8.81 1.05 8.87 1.09 8.94 1.12 9.01 1.15 9.07 1.18 9.14 1.22 9.2 1.25 9.27 1.28 9.33 1.32 9.4 1.35 9.46 1.39 9.53 1.42 9.6 1.45 9.66 1.49 9.73 1.52 9.79 1.56 9.86 1.59 9.92 1.62 9.99 1.66 10.05 1.69 10.12 1.73 10.18 1.76 10.25 1.8 10.32 1.83 10.38 1.87 10.45 1.9 10.51 1.94 10.58 1.97 10.64 2.01 10.71 2.04 10.77 2.08 10.84 2.11 10.91 2.15 10.97 2.19 11.04 2.22 11.1 2.26 11.17 2.29 11.23 2.33 11.3 2.37 11.36 2.4 11.43 2.44 11.49 2.48 11.56 2.51 11.63 2.55 11.69 2.59 11.76 2.62 11.82 2.66 11.89 2.7 11.95 2.74 12.02 2.77 12.08 2.81 12.15 2.85 12.21 2.89 12.28 2.92 12.35 2.96 12.41 3 12.48 3.04 12.54 3.08 12.61 3.11 12.67 3.15 12.74 3.19 12.8 3.23 12.87 3.27 12.94 3.31 13 3.35 13.07 3.39 13.13 3.43 13.2 3.47 13.26 3.5 13.33 3.54 13.39 3.58 13.46 3.62 13.52 3.66 13.59 3.7 13.66 3.74 13.72 3.78 13.79 3.83 13.85 3.87 13.92 3.91 13.98 3.95 14.05 3.99 14.11 4.03 14.18 4.07 14.25 4.11 14.31 4.15 14.38 4.19 14.44 4.24 14.51 4.28 14.57 4.32 14.64 4.36 14.7 4.4 14.77 4.45 14.83 4.49 14.9 4.53 14.97 4.57 15.03 4.62 15.1 4.66 15.16 4.7 15.23 4.75 15.29 4.79 15.36 4.83 15.42 4.88 15.49 4.92 15.56 4.96 15.62 5.01 15.69 5.05 15.75 5.1 15.82 5.14 15.88 5.18 15.95 5.23 16.01 5.27 16.08 5.32 16.14 5.36 16.21 5.41 16.28 5.45 16.34 5.5 16.41 5.55 16.47 5.59 16.54 5.64 16.6 5.68 16.67 5.73 16.73 5.78 16.8 5.82 16.87 5.87 16.93 5.92 17 5.96 17.06 6.01 17.13 6.06 17.19 6.1 17.26 6.15 17.32 6.2 17.39 6.25 17.45 6.29 17.52 6.34 17.59 6.39 17.65 6.44 17.72 6.49 17.78 6.54 17.85 6.59 17.91 6.63 17.98 6.68 18.04 6.73 18.11 6.78 18.18 6.83 18.24 6.88 18.31 6.93 18.37 6.98 18.44 7.03 18.5 7.08 18.57 7.13 18.63 7.18 18.7 7.24 18.76 7.29 18.83 7.34 18.9 7.39 18.96 7.44 19.03 7.49 19.09 7.54 19.16 7.6 19.22 7.65 19.29 7.7 19.35 7.75 19.42 7.81 19.49 7.86 19.55 7.91 19.62 7.97 19.68 8.02 19.75 8.07 19.81 8.13 19.88 8.18 19.94 8.24 20.01 8.29 20.07 8.34 20.14 8.4 20.21 8.45 20.27 8.51 20.34 8.57 20.4 8.62 20.47 8.68 20.53 8.73 20.6 8.79 20.66 8.84 20.73 8.9 20.79 8.96 20.86 9.01 20.93 9.07 20.99 9.13 21.06 9.19 21.12 9.24 21.19 9.3 21.25 9.36 21.32 9.42 21.38 9.48 21.45 9.54 21.52 9.59 21.58 9.65 21.65 9.71 21.71 9.77 21.78 9.83 21.84 9.89 21.91 9.95 21.97 10.01 22.04 10.07 22.1 10.13 22.17 10.2 22.24 10.26 22.3 10.32 22.37 10.38 22.43 10.44 22.5 10.5 22.56 10.57 22.63 10.63 22.69 10.69 22.76 10.75 22.83 10.82 22.89 10.88 22.96 10.95 23.02 11.01 23.09 11.07 23.15 11.14 23.22 11.2 23.28 11.27 23.35 11.33 23.41 11.4 23.48 11.46 23.55 11.53 23.61 11.6 23.68 11.66 23.74 11.73 23.81 11.8 23.87 11.86 23.94 11.93 24 12 24.07 12.07 24.14 12.13 24.2 12.2 24.27 12.27 24.33 12.34 24.4 12.41 24.46 12.48 24.53 12.55 24.59 12.62 24.66 12.69 24.72 12.76 24.79 12.83 24.86 12.9 24.92 12.97 24.99 13.04 25.05 13.11 25.12 13.19 25.18 13.26 25.25 13.33 25.31 13.41 25.38 13.48 25.45 13.55 25.51 13.63 25.58 13.7 25.64 13.77 25.71 13.85 25.77 13.92 25.84 14 25.9 14.08 25.97 14.15 26.03 14.23 26.1 14.3 26.17 14.38 26.23 14.46 26.3 14.54 26.36 14.61 26.43 14.69 26.49 14.77 26.56 14.85 26.62 14.93 26.69 15.01 26.76 15.09 26.82 15.17 26.89 15.25 26.95 15.33 27.02 15.41 27.08 15.49 27.15 15.57 27.21 15.65 27.28 15.74 27.34 15.82 27.41 15.9 27.48 15.98 27.54 16.07 27.61 16.15 27.67 16.24 27.74 16.32 27.8 16.41 27.87 16.49 27.93 16.58 28 16.66 28.06 16.75 28.13 16.84 28.2 16.93 28.26 17.01 28.33 17.1 28.39 17.19 28.46 17.28 28.52 17.37 28.59 17.46 28.65 17.55 28.72 17.64 28.79 17.73 28.85 17.82 28.92 17.91 28.98 18 29.05 18.1 29.11 18.19 29.18 18.28 29.24 18.38 29.31 18.47 29.37 18.56 29.44 18.66 29.51 18.75 29.57 18.85 29.64 18.95 29.7 19.04 29.77 19.14 29.83 19.24 29.9 19.34 29.96 19.43 30.03 19.53 30.1 19.63 30.16 19.73 30.23 19.83 30.29 19.93 30.36 20.03 30.42 20.13 30.49 20.24 30.55 20.34 30.62 20.44 30.68 20.55 30.75 20.65 30.82 20.75 30.88 20.86 30.95 20.96 31.01 21.07 31.08 21.18 31.14 21.28 31.21 21.39 31.27 21.5 31.34 21.61 31.41 21.72 31.47 21.83 31.54 21.94 31.6 22.05 31.67 22.16 31.73 22.27 31.8 22.38 31.86 22.49 31.93 22.61 31.99 22.72 32.06 22.83 32.13 22.95 32.19 23.06 32.26 23.18 32.32 23.3 32.39 23.41 32.45 23.53 32.52 23.65 32.58 23.77" class="primitive"/>
            </g>
          </g>
        </g>
      </g>
    </g>
  </g>
  <g class="guide ylabels" font-size="2.82" font-family="'PT Sans Caption','Helvetica Neue','Helvetica',sans-serif" fill="#6C606B" id="img-56e88ff9-330">
    <g transform="translate(13.76,49.75)" id="img-56e88ff9-331">
      <g class="primitive">
        <text text-anchor="end" dy="0.35em">0</text>
      </g>
    </g>
    <g transform="translate(13.76,45.99)" id="img-56e88ff9-332">
      <g class="primitive">
        <text text-anchor="end" dy="0.35em">1</text>
      </g>
    </g>
    <g transform="translate(13.76,42.22)" id="img-56e88ff9-333">
      <g class="primitive">
        <text text-anchor="end" dy="0.35em">2</text>
      </g>
    </g>
    <g transform="translate(13.76,38.45)" id="img-56e88ff9-334">
      <g class="primitive">
        <text text-anchor="end" dy="0.35em">3</text>
      </g>
    </g>
    <g transform="translate(13.76,34.68)" id="img-56e88ff9-335">
      <g class="primitive">
        <text text-anchor="end" dy="0.35em">4</text>
      </g>
    </g>
    <g transform="translate(13.76,30.92)" id="img-56e88ff9-336">
      <g class="primitive">
        <text text-anchor="end" dy="0.35em">5</text>
      </g>
    </g>
    <g transform="translate(13.76,27.15)" id="img-56e88ff9-337">
      <g class="primitive">
        <text text-anchor="end" dy="0.35em">6</text>
      </g>
    </g>
    <g transform="translate(13.76,23.38)" id="img-56e88ff9-338">
      <g class="primitive">
        <text text-anchor="end" dy="0.35em">7</text>
      </g>
    </g>
    <g transform="translate(13.76,19.61)" id="img-56e88ff9-339">
      <g class="primitive">
        <text text-anchor="end" dy="0.35em">8</text>
      </g>
    </g>
    <g transform="translate(13.76,15.84)" id="img-56e88ff9-340">
      <g class="primitive">
        <text text-anchor="end" dy="0.35em">9</text>
      </g>
    </g>
    <g transform="translate(13.76,12.08)" id="img-56e88ff9-341">
      <g class="primitive">
        <text text-anchor="end" dy="0.35em">10</text>
      </g>
    </g>
    <g transform="translate(13.76,8.31)" id="img-56e88ff9-342">
      <g class="primitive">
        <text text-anchor="end" dy="0.35em">11</text>
      </g>
    </g>
    <g transform="translate(13.76,4.54)" id="img-56e88ff9-343">
      <g class="primitive">
        <text text-anchor="end" dy="0.35em">12</text>
      </g>
    </g>
  </g>
  <g font-size="3.88" font-family="'PT Sans','Helvetica Neue','Helvetica',sans-serif" fill="#564A55" stroke="#000000" stroke-opacity="0.000" id="img-56e88ff9-344">
    <g transform="translate(4.71,25.15)" id="img-56e88ff9-345">
      <g class="primitive">
        <text text-anchor="middle" dy="0.35em" transform="rotate(-90,0, 2)">Log<tspan style="dominant-baseline:inherit" dy="0.6em" font-size="83%">10</tspan><tspan dy="-0.498000em"> (viscosity in Pa s)</tspan></text>
      </g>
    </g>
  </g>
</g>
<defs>
  <clipPath id="img-56e88ff9-30">
    <path d="M14.76,2.54 L 84.26 2.54 84.26 51.76 14.76 51.76" />
  </clipPath>
</defs>
</svg>
